<?xml version="1.0" encoding="utf-8"?>
<!-- Generator: Adobe Illustrator 23.0.0, SVG Export Plug-In . SVG Version: 6.00 Build 0)  -->
<svg version="1.1" id="Layer_1" xmlns="http://www.w3.org/2000/svg" xmlns:xlink="http://www.w3.org/1999/xlink" x="0px" y="0px"
	 viewBox="0 0 400 400" style="enable-background:new 0 0 400 400;" xml:space="preserve">
<style type="text/css">
	.st0{fill:#CD5D12;}
	.st1{fill:#FA8132;}
	.st2{fill:#E86A17;}
	.st3{fill:#1989B8;}
	.st4{fill:#35BAF3;}
	.st5{fill:#1EA7E1;}
	.st6{fill:#CDA400;}
	.st7{fill:#FFD948;}
	.st8{fill:#FFCC00;}
	.st9{fill:#5FB13A;}
	.st10{fill:#88E060;}
	.st11{fill:#73CD4B;}
	.st12{fill-opacity:0.2;}
	.st13{fill-opacity:0.102;}
	.st14{fill:#727685;}
	.st15{fill:#9B9DAD;}
	.st16{fill:#838796;}
	.st17{fill:#616374;}
	.st18{fill:#97714A;}
	.st19{fill:#B7916A;}
	.st20{fill:#886644;}
	.st21{fill:#6D543A;}
	.st22{fill:#D3BF8F;}
	.st23{fill:#B1A077;}
	.st24{fill:#A3997F;}
	.st25{fill:#D9CDAF;}
	.st26{fill:#CBCBCB;}
	.st27{fill:#E9E9E9;}
	.st28{fill:#E5E5E5;}
	.st29{fill:#C2C2C2;}
	.st30{fill:#FAF2E1;}
	.st31{fill:#ECE3CE;}
	.st32{fill:#87623F;}
	.st33{fill:#BD8A5A;}
	.st34{fill:#6B6B6B;}
	.st35{fill:#A8A8A8;}
	.st36{fill:#C99869;}
	.st37{fill:#666666;}
	.st38{fill:#E0E0E0;}
	.st39{fill:#FFFFFF;}
	.st40{fill:#9C7F0E;}
	.st41{fill:#E2B712;}
	.st42{fill:#F5C614;}
	.st43{fill:#707483;}
	.st44{fill:#C6B897;}
	.st45{fill:#A1A1A1;}
	.st46{fill:#727272;}
	.st47{fill:#9F8E67;}
	.st48{fill:#AAAAAA;}
	.st49{fill:#DBDBDB;}
	.st50{fill:#989898;}
	.st51{fill:#E9E0C7;}
	.st52{fill:#C9A37D;}
	.st53{fill:#D2D8E7;}
</style>
<path class="st0" d="M117,46h0.2h0.2c1.8-0.1,3.3-0.8,4.6-2c1.4-1.4,2.1-3,2.1-5l-0.1-1c-0.2-1.5-0.8-2.8-1.9-4l-0.1,0
	c-1.3-1.3-2.9-1.9-4.6-2h-0.2H117v-2h0.2h0.2c2.3,0.1,4.3,0.9,6,2.5l0.1,0.2c1.5,1.5,2.3,3.3,2.5,5.3l0.1,1c0,2.5-0.9,4.6-2.6,6.3
	h-0.1c-1.7,1.7-3.7,2.6-6,2.7h-0.2H117V46"/>
<path class="st1" d="M117,46v-2h0.2h0.2c1.2-0.1,2.3-0.6,3.3-1.5c1-1,1.4-2.1,1.4-3.5l-0.1-1H117v-6h0.2h0.2c1.8,0.1,3.3,0.7,4.6,2
	l0.1,0c1.1,1.1,1.7,2.5,1.9,4l0.1,1c0,1.9-0.7,3.6-2.1,5c-1.3,1.3-2.9,2-4.6,2h-0.2H117"/>
<path class="st2" d="M117,38h4.9l0.1,1c0,1.4-0.5,2.5-1.4,3.5c-0.9,0.9-2,1.4-3.3,1.5h-0.2H117V38"/>
<path class="st2" d="M69,44v-6h18v6H69"/>
<path class="st0" d="M69,32v-2h18v2H69 M87,46v2H69v-2H87"/>
<path class="st1" d="M87,46H69v-2h18V46 M87,38H69v-6h18V38"/>
<path class="st0" d="M39,46v2h-0.2h-0.1c-2.3,0-4.3-0.9-6-2.7h-0.1C30.9,43.6,30,41.5,30,39l0-1c0.2-2,1-3.8,2.5-5.3l0.2-0.2
	c1.7-1.6,3.7-2.5,6-2.5h0.1H39v2h-0.2h-0.1c-1.8,0.1-3.3,0.7-4.7,2l0,0c-1.1,1.1-1.7,2.5-1.9,4L32,39c0,1.9,0.7,3.6,2,5
	c1.3,1.3,2.9,2,4.7,2h0.1H39"/>
<path class="st1" d="M39,46h-0.2h-0.1c-1.8-0.1-3.3-0.8-4.7-2c-1.4-1.4-2-3-2-5l0.1-1c0.2-1.5,0.8-2.8,1.9-4l0,0
	c1.3-1.3,2.9-1.9,4.7-2h0.1H39v6h-4.9L34,39c0,1.4,0.5,2.5,1.5,3.5c0.9,0.9,2,1.4,3.3,1.5h0.1H39V46"/>
<path class="st2" d="M39,38v6h-0.2h-0.1c-1.2-0.1-2.3-0.6-3.3-1.5c-1-1-1.5-2.1-1.5-3.5l0.1-1H39"/>
<path class="st3" d="M39,86v2h-0.2h-0.1c-2.3,0-4.3-0.9-6-2.7h-0.1C30.9,83.6,30,81.5,30,79l0-1c0.2-2,1-3.8,2.5-5.3l0.2-0.1
	c1.7-1.6,3.7-2.5,6-2.6h0.1H39v2h-0.2h-0.1c-1.8,0.1-3.3,0.7-4.7,2l0,0.1c-1.1,1.1-1.7,2.4-1.9,3.9L32,79c0,1.9,0.7,3.6,2,4.9
	c1.3,1.3,2.9,2,4.7,2.1h0.1H39"/>
<path class="st4" d="M39,86h-0.2h-0.1c-1.8-0.1-3.3-0.8-4.7-2.1c-1.4-1.4-2-3-2-4.9l0.1-1c0.2-1.5,0.8-2.8,1.9-3.9l0-0.1
	c1.3-1.3,2.9-1.9,4.7-2h0.1H39v6h-4.9L34,79c0,1.4,0.5,2.5,1.5,3.5c0.9,0.9,2,1.4,3.3,1.5h0.1H39V86"/>
<path class="st5" d="M39,78v6h-0.2h-0.1c-1.2-0.1-2.3-0.6-3.3-1.5c-1-1-1.5-2.1-1.5-3.5l0.1-1H39"/>
<path class="st4" d="M87,72v6H69v-6H87 M87,84v2H69v-2H87"/>
<path class="st3" d="M87,72H69v-2h18V72 M87,86v2H69v-2H87"/>
<path class="st5" d="M69,78h18v6H69V78"/>
<path class="st4" d="M117,84h0.2h0.2c1.2-0.1,2.3-0.6,3.3-1.5c1-1,1.4-2.1,1.4-3.5l-0.1-1H117v-6h0.2h0.2c1.8,0.1,3.3,0.7,4.6,2
	l0.1,0.1c1.1,1.1,1.7,2.4,1.9,3.9l0.1,1c0,1.9-0.7,3.6-2.1,4.9c-1.3,1.3-2.9,2-4.6,2.1h-0.2H117V84"/>
<path class="st5" d="M117,84v-6h4.9l0.1,1c0,1.4-0.5,2.5-1.4,3.5c-0.9,0.9-2,1.4-3.3,1.5h-0.2H117"/>
<path class="st3" d="M117,86h0.2h0.2c1.8-0.1,3.3-0.8,4.6-2.1c1.4-1.4,2.1-3,2.1-4.9l-0.1-1c-0.2-1.5-0.8-2.8-1.9-3.9l-0.1-0.1
	c-1.3-1.3-2.9-1.9-4.6-2h-0.2H117v-2h0.2h0.2c2.3,0.1,4.3,0.9,6,2.6l0.1,0.1c1.5,1.5,2.3,3.3,2.5,5.3l0.1,1c0,2.5-0.9,4.6-2.6,6.3
	h-0.1c-1.7,1.7-3.7,2.6-6,2.7h-0.2H117V86"/>
<path class="st6" d="M117,126h0.2h0.2c1.8-0.1,3.3-0.8,4.6-2.1c1.4-1.4,2.1-3,2.1-4.9l-0.1-1c-0.2-1.5-0.8-2.8-1.9-3.9l-0.1-0.1
	c-1.3-1.3-2.9-1.9-4.6-2h-0.2H117v-2h0.2h0.2c2.3,0.1,4.3,0.9,6,2.6l0.1,0.1c1.5,1.5,2.3,3.3,2.5,5.3l0.1,1c0,2.5-0.9,4.6-2.6,6.3
	h-0.1c-1.7,1.7-3.7,2.6-6,2.7h-0.2H117V126"/>
<path class="st7" d="M117,126v-2h0.2h0.2c1.2-0.1,2.3-0.6,3.3-1.5c1-1,1.4-2.1,1.4-3.5l-0.1-1H117v-6h0.2h0.2c1.8,0.1,3.3,0.7,4.6,2
	l0.1,0.1c1.1,1.1,1.7,2.4,1.9,3.9l0.1,1c0,1.9-0.7,3.6-2.1,4.9c-1.3,1.3-2.9,2-4.6,2.1h-0.2H117"/>
<path class="st8" d="M117,118h4.9l0.1,1c0,1.4-0.5,2.5-1.4,3.5c-0.9,0.9-2,1.4-3.3,1.5h-0.2H117V118"/>
<path class="st7" d="M69,112h18v6H69V112 M87,124v2H69v-2H87"/>
<path class="st8" d="M87,124H69v-6h18V124"/>
<path class="st6" d="M69,112v-2h18v2H69 M87,126v2H69v-2H87"/>
<path class="st6" d="M39,112h-0.2h-0.1c-1.8,0.1-3.3,0.7-4.7,2l0,0.1c-1.1,1.1-1.7,2.4-1.9,3.9l-0.1,1c0,1.9,0.7,3.6,2,4.9
	c1.3,1.3,2.9,2,4.7,2.1h0.1H39v2h-0.2h-0.1c-2.3,0-4.3-0.9-6-2.7h-0.1c-1.7-1.8-2.6-3.9-2.6-6.3l0-1c0.2-2,1-3.8,2.5-5.3l0.2-0.1
	c1.7-1.6,3.7-2.5,6-2.6h0.1H39V112"/>
<path class="st7" d="M39,112v6h-4.9l-0.1,1c0,1.4,0.5,2.5,1.5,3.5c0.9,0.9,2,1.4,3.3,1.5h0.1H39v2h-0.2h-0.1
	c-1.8-0.1-3.3-0.8-4.7-2.1c-1.4-1.4-2-3-2-4.9l0.1-1c0.2-1.5,0.8-2.8,1.9-3.9l0-0.1c1.3-1.3,2.9-1.9,4.7-2h0.1H39"/>
<path class="st8" d="M39,124h-0.2h-0.1c-1.2-0.1-2.3-0.6-3.3-1.5c-1-1-1.5-2.1-1.5-3.5l0.1-1H39V124"/>
<path class="st9" d="M39,166v2h-0.2h-0.1c-2.3,0-4.3-0.9-6-2.6h-0.1c-1.7-1.8-2.6-3.9-2.6-6.4l0-1c0.2-2,1-3.8,2.5-5.3l0.2-0.1
	c1.7-1.6,3.7-2.5,6-2.6h0.1H39v2h-0.2h-0.1c-1.8,0.1-3.3,0.7-4.7,2l0,0.1c-1.1,1.1-1.7,2.4-1.9,3.9l-0.1,1c0,1.9,0.7,3.6,2,4.9
	c1.3,1.3,2.9,2,4.7,2.1h0.1H39"/>
<path class="st10" d="M39,166h-0.2h-0.1c-1.8-0.1-3.3-0.8-4.7-2.1c-1.4-1.4-2-3-2-4.9l0.1-1c0.2-1.5,0.8-2.8,1.9-3.9l0-0.1
	c1.3-1.3,2.9-1.9,4.7-2h0.1H39v6h-4.9l-0.1,1c0,1.4,0.5,2.5,1.5,3.5c0.9,0.9,2,1.4,3.3,1.5h0.1H39V166"/>
<path class="st11" d="M39,158v6h-0.2h-0.1c-1.2-0.1-2.3-0.6-3.3-1.5c-1-1-1.5-2.1-1.5-3.5l0.1-1H39"/>
<path class="st9" d="M69,152v-2h18v2H69 M87,166v2H69v-2H87"/>
<path class="st11" d="M87,158v6H69v-6H87"/>
<path class="st10" d="M87,158H69v-6h18V158 M87,164v2H69v-2H87"/>
<path class="st10" d="M117,152h0.2h0.2c1.8,0.1,3.3,0.7,4.6,2l0.1,0.1c1.1,1.1,1.7,2.4,1.9,3.9l0.1,1c0,1.9-0.7,3.6-2.1,4.9
	c-1.3,1.3-2.9,2-4.6,2.1h-0.2H117v-2h0.2h0.2c1.2-0.1,2.3-0.6,3.3-1.5c1-1,1.4-2.1,1.4-3.5l-0.1-1H117V152"/>
<path class="st9" d="M117,152v-2h0.2h0.2c2.3,0.1,4.3,0.9,6,2.6l0.1,0.1c1.5,1.5,2.3,3.3,2.5,5.3l0.1,1c0,2.5-0.9,4.6-2.6,6.4h-0.1
	c-1.7,1.7-3.7,2.6-6,2.6h-0.2H117v-2h0.2h0.2c1.8-0.1,3.3-0.8,4.6-2.1c1.4-1.4,2.1-3,2.1-4.9l-0.1-1c-0.2-1.5-0.8-2.8-1.9-3.9
	l-0.1-0.1c-1.3-1.3-2.9-1.9-4.6-2h-0.2H117"/>
<path class="st11" d="M117,158h4.9l0.1,1c0,1.4-0.5,2.5-1.4,3.5c-0.9,0.9-2,1.4-3.3,1.5h-0.2H117V158"/>
<path class="st12" d="M77,762v-2h0.2h0.2c2.3,0.1,4.3,0.9,6,2.5l0.1,0.2c1.5,1.5,2.3,3.3,2.5,5.3l0.1,1l-0.1,1c-0.2-2-1-3.8-2.5-5.3
	l-0.1-0.2c-1.7-1.6-3.7-2.5-6-2.5h-0.2H77"/>
<path class="st13" d="M77,762h0.2h0.2c2.3,0.1,4.3,0.9,6,2.5l0.1,0.2c1.5,1.5,2.3,3.3,2.5,5.3c-0.2,2-1,3.8-2.5,5.3h-0.1
	c-1.7,1.7-3.7,2.6-6,2.7h-0.2H77V762"/>
<path class="st12" d="M49,762v-2h18v2H49"/>
<path class="st13" d="M49,762h18v16H49V762"/>
<path class="st12" d="M39,762h-0.2h-0.1c-2.3,0.1-4.3,0.9-6,2.5l-0.2,0.2c-1.5,1.5-2.3,3.3-2.5,5.3l0-1l0-1c0.2-2,1-3.8,2.5-5.3
	l0.2-0.2c1.7-1.6,3.7-2.5,6-2.5h0.1H39V762"/>
<path class="st13" d="M39,762v16h-0.2h-0.1c-2.3,0-4.3-0.9-6-2.7h-0.1c-1.5-1.5-2.3-3.3-2.5-5.3c0.2-2,1-3.8,2.5-5.3l0.2-0.2
	c1.7-1.6,3.7-2.5,6-2.5h0.1H39"/>
<path class="st1" d="M304,118v0.2v0.2c0.1,1.2,0.6,2.3,1.5,3.3c1,1,2.1,1.4,3.5,1.4l1-0.1V118h6v0.2v0.2c-0.1,1.8-0.7,3.3-2,4.6
	l0,0.1c-1.1,1.1-2.5,1.7-4,1.9l-1,0.1c-1.9,0-3.6-0.7-5-2.1c-1.3-1.3-2-2.9-2-4.6v-0.2V118H304"/>
<path class="st2" d="M304,118h6v4.9l-1,0.1c-1.4,0-2.5-0.5-3.5-1.4c-0.9-0.9-1.4-2-1.5-3.3v-0.2V118"/>
<path class="st0" d="M302,118v0.2v0.2c0.1,1.8,0.8,3.3,2,4.6c1.4,1.4,3,2.1,5,2.1l1-0.1c1.5-0.2,2.8-0.8,4-1.9l0-0.1
	c1.3-1.3,1.9-2.9,2-4.6v-0.2V118h2v0.2v0.2c-0.1,2.3-0.9,4.3-2.5,6l-0.2,0.1c-1.5,1.5-3.3,2.3-5.3,2.5l-1,0.1
	c-2.5,0-4.6-0.9-6.4-2.6v-0.1c-1.7-1.7-2.6-3.7-2.6-6v-0.2V118H302"/>
<path class="st2" d="M304,70h6v18h-6V70"/>
<path class="st0" d="M316,70h2v18h-2V70 M302,88h-2V70h2V88"/>
<path class="st1" d="M302,88V70h2v18H302 M310,88V70h6v18H310"/>
<path class="st0" d="M316,40v-0.2v-0.1c-0.1-1.8-0.7-3.3-2-4.7l0,0c-1.1-1.1-2.5-1.7-4-1.9l-1-0.1c-1.9,0-3.6,0.7-5,2
	c-1.3,1.3-2,2.9-2,4.7v0.1V40h-2v-0.2v-0.1c0-2.3,0.9-4.3,2.6-6v-0.1c1.8-1.7,3.9-2.6,6.4-2.6l1,0c2,0.2,3.8,1,5.3,2.5l0.2,0.2
	c1.6,1.7,2.5,3.7,2.5,6v0.1V40H316"/>
<path class="st1" d="M316,40h-6v-4.9l-1-0.1c-1.4,0-2.5,0.5-3.5,1.5c-0.9,0.9-1.4,2-1.5,3.3v0.1V40h-2v-0.2v-0.1
	c0.1-1.8,0.8-3.3,2-4.7c1.4-1.4,3-2,5-2l1,0.1c1.5,0.2,2.8,0.8,4,1.9l0,0c1.3,1.3,1.9,2.9,2,4.7v0.1V40"/>
<path class="st2" d="M304,40v-0.2v-0.1c0.1-1.2,0.6-2.3,1.5-3.3c1-1,2.1-1.5,3.5-1.5l1,0.1V40H304"/>
<path class="st3" d="M276,40v-0.2v-0.1c-0.1-1.8-0.7-3.3-2-4.7l0,0c-1.1-1.1-2.5-1.7-4-1.9l-1-0.1c-1.9,0-3.6,0.7-5,2
	c-1.3,1.3-2,2.9-2,4.7v0.1V40h-2v-0.2v-0.1c0-2.3,0.9-4.3,2.6-6v-0.1c1.8-1.7,3.9-2.6,6.4-2.6l1,0c2,0.2,3.8,1,5.3,2.5l0.2,0.2
	c1.6,1.7,2.5,3.7,2.5,6v0.1V40H276"/>
<path class="st4" d="M276,40h-6v-4.9l-1-0.1c-1.4,0-2.5,0.5-3.5,1.5c-0.9,0.9-1.4,2-1.5,3.3v0.1V40h-2v-0.2v-0.1
	c0.1-1.8,0.8-3.3,2-4.7c1.4-1.4,3-2,5-2l1,0.1c1.5,0.2,2.8,0.8,4,1.9l0,0c1.3,1.3,1.9,2.9,2,4.7v0.1V40"/>
<path class="st5" d="M264,40v-0.2v-0.1c0.1-1.2,0.6-2.3,1.5-3.3c1-1,2.1-1.5,3.5-1.5l1,0.1V40H264"/>
<path class="st3" d="M276,70h2v18h-2V70 M262,88h-2V70h2V88"/>
<path class="st5" d="M270,88h-6V70h6V88"/>
<path class="st4" d="M270,88V70h6v18H270 M264,88h-2V70h2V88"/>
<path class="st3" d="M276,118h2v0.2v0.2c-0.1,2.3-0.9,4.3-2.5,6l-0.2,0.1c-1.5,1.5-3.3,2.3-5.3,2.5l-1,0.1c-2.5,0-4.6-0.9-6.4-2.6
	v-0.1c-1.7-1.7-2.6-3.7-2.6-6v-0.2V118h2v0.2v0.2c0.1,1.8,0.8,3.3,2,4.6c1.4,1.4,3,2.1,5,2.1l1-0.1c1.5-0.2,2.8-0.8,4-1.9l0-0.1
	c1.3-1.3,1.9-2.9,2-4.6v-0.2V118"/>
<path class="st4" d="M276,118v0.2v0.2c-0.1,1.8-0.7,3.3-2,4.6l0,0.1c-1.1,1.1-2.5,1.7-4,1.9l-1,0.1c-1.9,0-3.6-0.7-5-2.1
	c-1.3-1.3-2-2.9-2-4.6v-0.2V118h2v0.2v0.2c0.1,1.2,0.6,2.3,1.5,3.3c1,1,2.1,1.4,3.5,1.4l1-0.1V118H276"/>
<path class="st5" d="M264,118h6v4.9l-1,0.1c-1.4,0-2.5-0.5-3.5-1.4c-0.9-0.9-1.4-2-1.5-3.3v-0.2V118"/>
<path class="st7" d="M214,118v0.2v0.2c0.1,1.2,0.6,2.3,1.5,3.3c1,1,2.1,1.4,3.5,1.4l1-0.1V118h6v0.2v0.2c-0.1,1.8-0.7,3.3-2,4.6
	l-0.1,0.1c-1.1,1.1-2.4,1.7-3.9,1.9l-1,0.1c-1.9,0-3.6-0.7-4.9-2.1c-1.3-1.3-2-2.9-2.1-4.6v-0.2V118H214"/>
<path class="st8" d="M214,118h6v4.9l-1,0.1c-1.4,0-2.5-0.5-3.5-1.4c-0.9-0.9-1.4-2-1.5-3.3v-0.2V118"/>
<path class="st6" d="M212,118v0.2v0.2c0.1,1.8,0.8,3.3,2.1,4.6c1.4,1.4,3,2.1,4.9,2.1l1-0.1c1.5-0.2,2.8-0.8,3.9-1.9l0.1-0.1
	c1.3-1.3,1.9-2.9,2-4.6v-0.2V118h2v0.2v0.2c-0.1,2.3-0.9,4.3-2.6,6l-0.1,0.1c-1.5,1.5-3.3,2.3-5.3,2.5l-1,0.1
	c-2.5,0-4.6-0.9-6.4-2.6v-0.1c-1.7-1.7-2.6-3.7-2.6-6v-0.2V118H212"/>
<path class="st6" d="M226,88V70h2v18H226 M212,70v18h-2V70H212"/>
<path class="st7" d="M212,70h2v18h-2V70 M226,70v18h-6V70H226"/>
<path class="st8" d="M220,70v18h-6V70H220"/>
<path class="st8" d="M220,40h-6v-0.2v-0.1c0.1-1.2,0.6-2.3,1.5-3.3c1-1,2.1-1.5,3.5-1.5l1,0.1V40"/>
<path class="st7" d="M220,40v-4.9l-1-0.1c-1.4,0-2.5,0.5-3.5,1.5c-0.9,0.9-1.4,2-1.5,3.3v0.1V40h-2v-0.2v-0.1
	c0.1-1.8,0.8-3.3,2.1-4.7c1.4-1.4,3-2,4.9-2l1,0.1c1.5,0.2,2.8,0.8,3.9,1.9l0.1,0c1.3,1.3,1.9,2.9,2,4.7v0.1V40H220"/>
<path class="st6" d="M212,40h-2v-0.2v-0.1c0-2.3,0.9-4.3,2.6-6v-0.1c1.8-1.7,3.9-2.6,6.4-2.6l1,0c2,0.2,3.8,1,5.3,2.5l0.1,0.2
	c1.6,1.7,2.5,3.7,2.6,6v0.1V40h-2v-0.2v-0.1c-0.1-1.8-0.7-3.3-2-4.7l-0.1,0c-1.1-1.1-2.4-1.7-3.9-1.9l-1-0.1c-1.9,0-3.6,0.7-4.9,2
	c-1.3,1.3-2,2.9-2.1,4.7v0.1V40"/>
<path class="st9" d="M152,40h-2v-0.2v-0.1c0-2.3,0.9-4.3,2.6-6v-0.1c1.8-1.7,3.9-2.6,6.4-2.6l1,0c2,0.2,3.8,1,5.3,2.5l0.1,0.2
	c1.6,1.7,2.5,3.7,2.6,6v0.1V40h-2v-0.2v-0.1c-0.1-1.8-0.7-3.3-2-4.7l-0.1,0c-1.1-1.1-2.4-1.7-3.9-1.9l-1-0.1c-1.9,0-3.6,0.7-4.9,2
	c-1.3,1.3-2,2.9-2.1,4.7v0.1V40"/>
<path class="st10" d="M152,40v-0.2v-0.1c0.1-1.8,0.8-3.3,2.1-4.7c1.4-1.4,3-2,4.9-2l1,0.1c1.5,0.2,2.8,0.8,3.9,1.9l0.1,0
	c1.3,1.3,1.9,2.9,2,4.7v0.1V40h-6v-4.9l-1-0.1c-1.4,0-2.5,0.5-3.5,1.5c-0.9,0.9-1.4,2-1.5,3.3v0.1V40H152"/>
<path class="st11" d="M160,40h-6v-0.2v-0.1c0.1-1.2,0.6-2.3,1.5-3.3c1-1,2.1-1.5,3.5-1.5l1,0.1V40"/>
<path class="st9" d="M166,70h2v18h-2V70 M152,88h-2V70h2V88"/>
<path class="st11" d="M160,88h-6V70h6V88"/>
<path class="st10" d="M160,88V70h6v18H160 M154,88h-2V70h2V88"/>
<path class="st9" d="M166,118h2v0.2v0.2c-0.1,2.3-0.9,4.3-2.6,6l-0.1,0.1c-1.5,1.5-3.3,2.3-5.3,2.5l-1,0.1c-2.5,0-4.6-0.9-6.4-2.6
	v-0.1c-1.7-1.7-2.6-3.7-2.6-6v-0.2V118h2v0.2v0.2c0.1,1.8,0.8,3.3,2.1,4.6c1.4,1.4,3,2.1,4.9,2.1l1-0.1c1.5-0.2,2.8-0.8,3.9-1.9
	l0.1-0.1c1.3-1.3,1.9-2.9,2-4.6v-0.2V118"/>
<path class="st10" d="M166,118v0.2v0.2c-0.1,1.8-0.7,3.3-2,4.6l-0.1,0.1c-1.1,1.1-2.4,1.7-3.9,1.9l-1,0.1c-1.9,0-3.6-0.7-4.9-2.1
	c-1.3-1.3-2-2.9-2.1-4.6v-0.2V118h2v0.2v0.2c0.1,1.2,0.6,2.3,1.5,3.3c1,1,2.1,1.4,3.5,1.4l1-0.1V118H166"/>
<path class="st11" d="M154,118h6v4.9l-1,0.1c-1.4,0-2.5-0.5-3.5-1.4c-0.9-0.9-1.4-2-1.5-3.3v-0.2V118"/>
<path class="st12" d="M218.2,650H218v-0.2v-0.1c0-2.3,0.9-4.3,2.6-6v-0.1c1.5-1.5,3.3-2.3,5.4-2.5l1,0l1,0c2,0.2,3.8,1,5.3,2.5
	l0.1,0.2c1.6,1.7,2.5,3.7,2.6,6v0.1v0.2h-0.2c-0.3-1.6-1.1-3-2.4-4.3l-0.1-0.2c-1.5-1.5-3.3-2.3-5.3-2.5l-1,0l-1,0
	c-2,0.2-3.8,1-5.4,2.5v0.1C219.3,646.9,218.5,648.4,218.2,650"/>
<path class="st13" d="M218.2,650c0.3-1.6,1.1-3.1,2.4-4.3v-0.1c1.5-1.5,3.3-2.3,5.4-2.5l1,0l1,0c2,0.2,3.8,1,5.3,2.5l0.1,0.2
	c1.2,1.3,2,2.7,2.4,4.3H218.2"/>
<path class="st13" d="M218,660h18v18h-18V660"/>
<path class="st13" d="M236,688.2v0.1c-0.1,2.3-0.9,4.3-2.6,6l-0.1,0.2c-1.5,1.5-3.3,2.3-5.3,2.5l-1,0l-1,0c-2-0.2-3.8-1-5.4-2.5
	v-0.1c-1.7-1.7-2.6-3.7-2.6-6v-0.1V688h18V688.2"/>
<path class="st14" d="M576,36l0,1v33c0,2.7-1.3,4-4,4H394c-2.7,0-4-1.3-4-4V37l0.1-1c0.3-2,1.6-3,3.9-3h178
	C574.3,33,575.6,34,576,36 M574,37l0-0.7l0,0c-0.2-0.9-0.9-1.3-2-1.3H430.5l-2.8,2.8l-2.8-2.8h-9.4l-2.3,2.3L411,35h-17
	c-1.1,0-1.7,0.4-1.9,1.3l-0.1,0.2l0,0.5v23.9l2.8,2.8l-2.8,2.8V70c0,1.3,0.7,2,2,2h91.9l2.8-2.8l2.8,2.8H534l1.5-1.6L537,72h35
	c1.3,0,2-0.7,2-2V47.1l-2.4-2.4l2.4-2.4V37"/>
<path class="st15" d="M576,36c-0.3-2-1.6-3-4-3H394c-2.3,0-3.6,1-3.9,3l-0.1,1v33c0,2.7,1.3,4,4,4h178c2.7,0,4-1.3,4-4V37L576,36
	 M388,70.3V37c0-4,2-6,6-6h178c4,0,6,2,6,6v33.3c-0.1,3.8-2.1,5.8-6,5.8H394C390.1,76,388.1,74.1,388,70.3"/>
<path class="st16" d="M574,37v5.3l-2.4,2.4l2.4,2.4V70c0,1.3-0.7,2-2,2h-35l-1.5-1.6L534,72h-42.6l-2.8-2.8l-2.8,2.8H394
	c-1.3,0-2-0.7-2-2v-3.6l2.8-2.8l-2.8-2.8V37l0-0.5l0.1-0.2c0.2-0.9,0.8-1.3,1.9-1.3h17l2.3,2.3l2.3-2.3h9.4l2.8,2.8l2.8-2.8H572
	c1.1,0,1.8,0.5,2,1.3l0,0L574,37"/>
<path class="st17" d="M578,70.3V74c0,4-2,6-6,6H394c-4,0-6-2-6-6v-3.8c0.1,3.8,2.1,5.8,6,5.8h178C575.9,76,577.9,74.1,578,70.3"/>
<path class="st18" d="M574,96.3L574,96.3V97v5.3l-2.4,2.4l2.4,2.4V130c0,1.3-0.7,2-2,2h-35l-1.5-1.6L534,132h-42.6l-2.8-2.8
	l-2.8,2.8H394c-1.3,0-2-0.7-2-2v-3.6l2.8-2.8l-2.8-2.8V97l0-0.5l0.1-0.2c0.2-0.9,0.8-1.3,1.9-1.3h17l2.3,2.3l2.3-2.3h9.4l2.8,2.8
	l2.8-2.8H572C573.1,95,573.8,95.5,574,96.3"/>
<path class="st19" d="M574,96.3c-0.2-0.9-0.9-1.3-2-1.3H430.5l-2.8,2.8l-2.8-2.8h-9.4l-2.3,2.3L411,95h-17c-1.1,0-1.7,0.4-1.9,1.3
	l-0.1,0.2l0,0.5v23.9l2.8,2.8l-2.8,2.8v3.6c0,1.3,0.7,2,2,2h91.9l2.8-2.8l2.8,2.8H534l1.5-1.6l1.5,1.6h35c1.3,0,2-0.7,2-2v-22.9
	l-2.4-2.4l2.4-2.4V97V96.3L574,96.3 M576,96.1l0,0.9v33c0,2.7-1.3,4-4,4H394c-2.7,0-4-1.3-4-4V97l0.1-0.9c0.3-2,1.6-3.1,3.9-3.1h178
	C574.3,93,575.6,94,576,96.1"/>
<path class="st20" d="M576,96.1c-0.3-2-1.6-3.1-4-3.1H394c-2.3,0-3.6,1-3.9,3.1L390,97v33c0,2.7,1.3,4,4,4h178c2.7,0,4-1.3,4-4V97
	L576,96.1 M388,130.3V97c0-4,2-6,6-6h178c4,0,6,2,6,6v33.3c-0.1,3.8-2.1,5.8-6,5.8H394C390.1,136,388.1,134.1,388,130.3"/>
<path class="st21" d="M388,130.3c0.1,3.8,2.1,5.8,6,5.8h178c3.9,0,5.9-1.9,6-5.8v3.8c0,4-2,6-6,6H394c-4,0-6-2-6-6V130.3"/>
<path class="st22" d="M491.4,192l-2.8-2.8l-2.8,2.8H394c-1.3,0-2-0.7-2-2v-3.6l2.8-2.8l-2.8-2.8V157l0-0.5l0.1-0.2
	c0.2-0.9,0.8-1.3,1.9-1.3h17l2.3,2.3l2.3-2.3h9.4l2.8,2.8l2.8-2.8H572c1.1,0,1.8,0.4,2,1.4l0-0.1l0,0.7v5.3l-2.4,2.4l2.4,2.4V190
	c0,1.3-0.7,2-2,2h-35l-1.5-1.6L534,192H491.4"/>
<path class="st23" d="M491.4,192H534l1.5-1.6l1.5,1.6h35c1.3,0,2-0.7,2-2v-22.9l-2.4-2.4l2.4-2.4V157l0-0.7l0,0.1
	c-0.2-0.9-0.9-1.4-2-1.4H430.5l-2.8,2.8l-2.8-2.8h-9.4l-2.3,2.3L411,155h-17c-1.1,0-1.7,0.4-1.9,1.3l-0.1,0.2l0,0.5v23.9l2.8,2.8
	l-2.8,2.8v3.6c0,1.3,0.7,2,2,2h91.9l2.8-2.8L491.4,192 M576,156.1l0,0.9v33c0,2.7-1.3,4-4,4H394c-2.7,0-4-1.3-4-4v-33l0.1-0.9
	c0.3-2,1.6-3.1,3.9-3.1h178C574.3,153,575.6,154,576,156.1"/>
<path class="st24" d="M578,190.3v3.8c0,4-2,6-6,6H394c-4,0-6-2-6-6v-3.8c0.1,3.8,2.1,5.8,6,5.8h178C575.9,196,577.9,194.1,578,190.3
	"/>
<path class="st25" d="M578,190.3c-0.1,3.8-2.1,5.8-6,5.8H394c-3.9,0-5.9-1.9-6-5.8V157c0-4,2-6,6-6h178c4,0,6,2,6,6V190.3
	 M576,156.1c-0.3-2-1.6-3.1-4-3.1H394c-2.3,0-3.6,1-3.9,3.1L390,157v33c0,2.7,1.3,4,4,4h178c2.7,0,4-1.3,4-4v-33L576,156.1"/>
<path class="st26" d="M576,216.1l0,0.9v33c0,2.7-1.3,4-4,4H394c-2.7,0-4-1.3-4-4v-33l0.1-0.9c0.3-2,1.6-3.1,3.9-3.1h178
	C574.3,213,575.6,214,576,216.1 M574,216.4c-0.2-0.9-0.9-1.4-2-1.4H430.5l-2.8,2.8l-2.8-2.8h-9.4l-2.3,2.3L411,215h-17
	c-1.1,0-1.7,0.4-1.9,1.3l-0.1,0.2l0,0.5v23.9l2.8,2.8l-2.8,2.8v3.6c0,1.3,0.7,2,2,2h91.9l2.8-2.8l2.8,2.8H534l1.5-1.6l1.5,1.6h35
	c1.3,0,2-0.7,2-2v-22.9l-2.4-2.4l2.4-2.4V217V216.4L574,216.4"/>
<path class="st27" d="M576,216.1c-0.3-2-1.6-3.1-4-3.1H394c-2.3,0-3.6,1-3.9,3.1L390,217v33c0,2.7,1.3,4,4,4h178c2.7,0,4-1.3,4-4
	v-33L576,216.1 M388,250.3V217c0-4,2-6,6-6h178c4,0,6,2,6,6v33.3c-0.1,3.8-2.1,5.8-6,5.8H394C390.1,256,388.1,254.1,388,250.3"/>
<path class="st28" d="M574,216.4L574,216.4v0.6v5.3l-2.4,2.4l2.4,2.4V250c0,1.3-0.7,2-2,2h-35l-1.5-1.6L534,252h-42.6l-2.8-2.8
	l-2.8,2.8H394c-1.3,0-2-0.7-2-2v-3.6l2.8-2.8l-2.8-2.8V217l0-0.5l0.1-0.2c0.2-0.9,0.8-1.3,1.9-1.3h17l2.3,2.3l2.3-2.3h9.4l2.8,2.8
	l2.8-2.8H572C573.1,215,573.8,215.4,574,216.4"/>
<path class="st29" d="M578,250.3v3.8c0,4-2,6-6,6H394c-4,0-6-2-6-6v-3.8c0.1,3.8,2.1,5.8,6,5.8h178C575.9,256,577.9,254.1,578,250.3
	"/>
<path class="st16" d="M849,36.3L849,36.3V37v5.3l-2.4,2.4l2.4,2.4V70c0,1.3-0.7,2-2,2h-33c-1.3,0-2-0.7-2-2v-3.6l2.8-2.8l-2.8-2.8
	V37l0-0.5l0-0.2c0.2-0.9,0.8-1.3,1.9-1.3h33C848.1,35,848.8,35.5,849,36.3"/>
<path class="st14" d="M849,36.3c-0.2-0.9-0.9-1.3-2-1.3h-33c-1.1,0-1.7,0.4-1.9,1.3l0,0.2l0,0.5v23.9l2.8,2.8l-2.8,2.8V70
	c0,1.3,0.7,2,2,2h33c1.3,0,2-0.7,2-2V47.1l-2.4-2.4l2.4-2.4V37V36.3L849,36.3 M851,36l0,1v33c0,2.7-1.3,4-4,4h-33c-2.7,0-4-1.3-4-4
	V37l0.1-1c0.3-2,1.6-3,3.9-3h33C849.3,33,850.6,34,851,36"/>
<path class="st15" d="M851,36c-0.3-2-1.6-3-4-3h-33c-2.3,0-3.6,1-3.9,3l-0.1,1v33c0,2.7,1.3,4,4,4h33c2.7,0,4-1.3,4-4V37L851,36
	 M808,70.3V37c0-4,2-6,6-6h33c4,0,6,2,6,6v33.3c-0.1,3.8-2.1,5.8-6,5.8h-33C810.1,76,808.1,74.1,808,70.3"/>
<path class="st17" d="M808,70.3c0.1,3.8,2.1,5.8,6,5.8h33c3.9,0,5.9-1.9,6-5.8V74c0,4-2,6-6,6h-33c-4,0-6-2-6-6V70.3"/>
<path class="st18" d="M812,96.5l0-0.2c0.2-0.9,0.8-1.3,1.9-1.3h33c1.1,0,1.8,0.5,2,1.3l0,0l0,0.7v5.3l-2.4,2.4l2.4,2.4V130
	c0,1.3-0.7,2-2,2h-33c-1.3,0-2-0.7-2-2v-3.6l2.8-2.8l-2.8-2.8V97L812,96.5"/>
<path class="st19" d="M812,96.5l0,0.5v23.9l2.8,2.8l-2.8,2.8v3.6c0,1.3,0.7,2,2,2h33c1.3,0,2-0.7,2-2v-22.9l-2.4-2.4l2.4-2.4V97
	l0-0.7l0,0c-0.2-0.9-0.9-1.3-2-1.3h-33c-1.1,0-1.7,0.4-1.9,1.3L812,96.5 M810,97l0.1-0.9c0.3-2,1.6-3.1,3.9-3.1h33
	c2.3,0,3.6,1,4,3.1l0,0.9v33c0,2.7-1.3,4-4,4h-33c-2.7,0-4-1.3-4-4V97"/>
<path class="st20" d="M810,97v33c0,2.7,1.3,4,4,4h33c2.7,0,4-1.3,4-4V97l0-0.9c-0.3-2-1.6-3.1-4-3.1h-33c-2.3,0-3.6,1-3.9,3.1
	L810,97 M808,130.3V97c0-4,2-6,6-6h33c4,0,6,2,6,6v33.3c-0.1,3.8-2.1,5.8-6,5.8h-33C810.1,136,808.1,134.1,808,130.3"/>
<path class="st21" d="M808,130.3c0.1,3.8,2.1,5.8,6,5.8h33c3.9,0,5.9-1.9,6-5.8v3.8c0,4-2,6-6,6h-33c-4,0-6-2-6-6V130.3"/>
<path class="st25" d="M808,190.3V157c0-4,2-6,6-6h33c4,0,6,2,6,6v33.3c-0.1,3.8-2.1,5.8-6,5.8h-33C810.1,196,808.1,194.1,808,190.3
	 M810.1,156.1L810,157v33c0,2.7,1.3,4,4,4h33c2.7,0,4-1.3,4-4v-33l0-0.9c-0.3-2-1.6-3.1-4-3.1h-33C811.7,153,810.4,154,810.1,156.1"
	/>
<path class="st23" d="M810.1,156.1c0.3-2,1.6-3.1,3.9-3.1h33c2.3,0,3.6,1,4,3.1l0,0.9v33c0,2.7-1.3,4-4,4h-33c-2.7,0-4-1.3-4-4v-33
	L810.1,156.1 M812.1,156.3l0,0.2l0,0.5v23.9l2.8,2.8l-2.8,2.8v3.6c0,1.3,0.7,2,2,2h33c1.3,0,2-0.7,2-2v-22.9l-2.4-2.4l2.4-2.4V157
	l0-0.7l0,0.1c-0.2-0.9-0.9-1.4-2-1.4h-33C812.9,155,812.3,155.4,812.1,156.3"/>
<path class="st22" d="M812.1,156.3c0.2-0.9,0.8-1.3,1.9-1.3h33c1.1,0,1.8,0.4,2,1.4l0-0.1l0,0.7v5.3l-2.4,2.4l2.4,2.4V190
	c0,1.3-0.7,2-2,2h-33c-1.3,0-2-0.7-2-2v-3.6l2.8-2.8l-2.8-2.8V157l0-0.5L812.1,156.3"/>
<path class="st24" d="M853,190.3v3.8c0,4-2,6-6,6h-33c-4,0-6-2-6-6v-3.8c0.1,3.8,2.1,5.8,6,5.8h33C850.9,196,852.9,194.1,853,190.3"
	/>
<path class="st27" d="M808,250.3V217c0-4,2-6,6-6h33c4,0,6,2,6,6v33.3c-0.1,3.8-2.1,5.8-6,5.8h-33C810.1,256,808.1,254.1,808,250.3
	 M851,216.1c-0.3-2-1.6-3.1-4-3.1h-33c-2.3,0-3.6,1-3.9,3.1L810,217v33c0,2.7,1.3,4,4,4h33c2.7,0,4-1.3,4-4v-33L851,216.1"/>
<path class="st28" d="M849,217v5.3l-2.4,2.4l2.4,2.4V250c0,1.3-0.7,2-2,2h-33c-1.3,0-2-0.7-2-2v-3.6l2.8-2.8l-2.8-2.8V217l0-0.5
	l0-0.2c0.2-0.9,0.8-1.3,1.9-1.3h33c1.1,0,1.8,0.4,2,1.4l0-0.1L849,217"/>
<path class="st26" d="M849,217l0-0.7l0,0.1c-0.2-0.9-0.9-1.4-2-1.4h-33c-1.1,0-1.7,0.4-1.9,1.3l0,0.2l0,0.5v23.9l2.8,2.8l-2.8,2.8
	v3.6c0,1.3,0.7,2,2,2h33c1.3,0,2-0.7,2-2v-22.9l-2.4-2.4l2.4-2.4V217 M851,216.1l0,0.9v33c0,2.7-1.3,4-4,4h-33c-2.7,0-4-1.3-4-4v-33
	l0.1-0.9c0.3-2,1.6-3.1,3.9-3.1h33C849.3,213,850.6,214,851,216.1"/>
<path class="st29" d="M853,250.3v3.8c0,4-2,6-6,6h-33c-4,0-6-2-6-6v-3.8c0.1,3.8,2.1,5.8,6,5.8h33C850.9,256,852.9,254.1,853,250.3"
	/>
<path class="st16" d="M784,40.3L784,40.3V41v5.3l-2.4,2.4l2.4,2.4V74c0,1.3-0.6,2-1.8,2H747l-1.5-1.6L744,76h-42.5l-2.8-2.8
	l-2.8,2.8h-92c-1.3,0-1.9-0.7-1.9-2v-3.6l2.8-2.8l-2.8-2.8V41l0-0.5l0-0.2c0.2-0.9,0.8-1.3,1.9-1.3h17l2.3,2.3l2.3-2.3h9.4l2.8,2.8
	l2.8-2.8H782C783.1,39,783.8,39.5,784,40.3"/>
<path class="st14" d="M784,40.3c-0.2-0.9-0.9-1.3-2-1.3H640.5l-2.8,2.8l-2.8-2.8h-9.4l-2.3,2.3L621,39h-17c-1.1,0-1.7,0.4-1.9,1.3
	l0,0.2l0,0.5v23.9l2.8,2.8l-2.8,2.8V74c0,1.3,0.6,2,1.9,2h92l2.8-2.8l2.8,2.8H744l1.5-1.6L747,76h35.1c1.2,0,1.8-0.7,1.8-2V51.1
	l-2.4-2.4l2.4-2.4V41V40.3L784,40.3 M782,37c2.3,0,3.6,1,4,3l0,1v33l0,1c-0.3,2-1.6,3-4,3H604c-2.3,0-3.6-1-3.9-3l-0.1-1V41l0.1-1
	c0.3-2,1.6-3,3.9-3H782"/>
<path class="st15" d="M782,37H604c-2.3,0-3.6,1-3.9,3l-0.1,1v33l0.1,1c0.3,2,1.6,3,3.9,3h178c2.3,0,3.6-1,4-3l0-1V41l0-1
	C785.6,38,784.3,37,782,37 M788,41v33v0.3c-0.1,3.8-2.1,5.8-6,5.8H604h-0.3h-0.2h-0.2h-0.1h-0.1h-0.1c-3.1-0.3-4.8-2-5-5.2l0-0.6V74
	V41c0-4,2-6,6-6h178C786,35,788,37,788,41"/>
<path class="st18" d="M784,101v5.3l-2.4,2.4l2.4,2.4V134c0,1.3-0.6,2-1.8,2H747l-1.5-1.6L744,136h-42.5l-2.8-2.8l-2.8,2.8h-92
	c-1.3,0-1.9-0.7-1.9-2v-3.6l2.8-2.7l-2.8-2.8V101l0-0.5l0-0.2c0.2-0.9,0.8-1.3,1.9-1.3h17l2.3,2.3l2.3-2.3h9.4l2.8,2.8l2.8-2.8H782
	c1.1,0,1.8,0.5,2,1.3l0,0L784,101"/>
<path class="st19" d="M784,101l0-0.7l0,0c-0.2-0.9-0.9-1.3-2-1.3H640.5l-2.8,2.8l-2.8-2.8h-9.4l-2.3,2.3L621,99h-17
	c-1.1,0-1.7,0.4-1.9,1.3l0,0.2l0,0.5v23.9l2.8,2.8l-2.8,2.7v3.6c0,1.3,0.6,2,1.9,2h92l2.8-2.8l2.8,2.8H744l1.5-1.6l1.5,1.6h35.1
	c1.2,0,1.8-0.7,1.8-2v-22.9l-2.4-2.4l2.4-2.4V101 M786,100.1l0,0.9v33l0,1c-0.3,2-1.6,3-4,3H604c-2.3,0-3.6-1-3.9-3l-0.1-1v-33
	l0.1-0.9c0.3-2,1.6-3.1,3.9-3.1h178C784.3,97,785.6,98,786,100.1"/>
<path class="st20" d="M786,100.1c-0.3-2-1.6-3.1-4-3.1H604c-2.3,0-3.6,1-3.9,3.1L600,101v33l0.1,1c0.3,2,1.6,3,3.9,3h178
	c2.3,0,3.6-1,4-3l0-1v-33L786,100.1 M788,134.3c-0.1,3.8-2.1,5.8-6,5.8H604h-0.3h-0.2h-0.2h-0.1h-0.1h-0.1c-3.1-0.3-4.8-2-5-5.1
	l0-0.6V101c0-4,2-6,6-6h178c4,0,6,2,6,6v33V134.3"/>
<path class="st22" d="M784,160.4L784,160.4v0.6v5.3l-2.4,2.4l2.4,2.4V194c0,1.3-0.6,2-1.8,2H747l-1.5-1.6L744,196h-42.5l-2.8-2.8
	l-2.8,2.8h-92c-1.3,0-1.9-0.7-1.9-2v-3.6l2.8-2.8l-2.8-2.8V161l0-0.5l0-0.2c0.2-0.9,0.8-1.3,1.9-1.3h17l2.3,2.3l2.3-2.3h9.4l2.8,2.8
	l2.8-2.8H782C783.1,159,783.8,159.4,784,160.4"/>
<path class="st23" d="M784,160.4c-0.2-0.9-0.9-1.4-2-1.4H640.5l-2.8,2.8l-2.8-2.8h-9.4l-2.3,2.3L621,159h-17c-1.1,0-1.7,0.4-1.9,1.3
	l0,0.2l0,0.5v23.9l2.8,2.8l-2.8,2.8v3.6c0,1.3,0.6,2,1.9,2h92l2.8-2.8l2.8,2.8H744l1.5-1.6l1.5,1.6h35.1c1.2,0,1.8-0.7,1.8-2v-22.9
	l-2.4-2.4l2.4-2.4V161V160.4L784,160.4 M782,157c2.3,0,3.6,1,4,3.1l0,0.9v33l0,1c-0.3,2-1.6,3-4,3H604c-2.3,0-3.6-1-3.9-3l-0.1-1
	v-33l0.1-0.9c0.3-2,1.6-3.1,3.9-3.1H782"/>
<path class="st25" d="M782,157H604c-2.3,0-3.6,1-3.9,3.1L600,161v33l0.1,1c0.3,2,1.6,3,3.9,3h178c2.3,0,3.6-1,4-3l0-1v-33l0-0.9
	C785.6,158,784.3,157,782,157 M788,161v33.3c-0.1,3.8-2.1,5.8-6,5.8H604h-0.3h-0.2h-0.2h-0.1h-0.1h-0.1c-3.1-0.3-4.8-2-5-5.1l0-0.6
	V161c0-4,2-6,6-6h178C786,155,788,157,788,161"/>
<path class="st27" d="M788,221v33v0.3c-0.1,3.8-2.1,5.8-6,5.8H604h-0.3h-0.2h-0.2h-0.1h-0.1h-0.1c-3.1-0.3-4.8-2-5-5.1l0-0.6V254
	v-33c0-4,2-6,6-6h178C786,215,788,217,788,221 M782,217H604c-2.3,0-3.6,1-3.9,3.1L600,221v33l0.1,1c0.3,2,1.6,3,3.9,3h178
	c2.3,0,3.6-1,4-3l0-1v-33l0-0.9C785.6,218,784.3,217,782,217"/>
<path class="st26" d="M782,217c2.3,0,3.6,1,4,3.1l0,0.9v33l0,1c-0.3,2-1.6,3-4,3H604c-2.3,0-3.6-1-3.9-3l-0.1-1v-33l0.1-0.9
	c0.3-2,1.6-3.1,3.9-3.1H782 M784,220.4c-0.2-0.9-0.9-1.4-2-1.4H640.5l-2.8,2.8l-2.8-2.8h-9.4l-2.3,2.3L621,219h-17
	c-1.1,0-1.7,0.4-1.9,1.3l0,0.2l0,0.5v23.9l2.8,2.8l-2.8,2.8v3.6c0,1.3,0.6,2,1.9,2h92l2.8-2.8l2.8,2.8H744l1.5-1.6l1.5,1.6h35.1
	c1.2,0,1.8-0.7,1.8-2v-22.9l-2.4-2.4l2.4-2.4V221V220.4L784,220.4"/>
<path class="st28" d="M784,220.4L784,220.4v0.6v5.3l-2.4,2.4l2.4,2.4V254c0,1.3-0.6,2-1.8,2H747l-1.5-1.6L744,256h-42.5l-2.8-2.8
	l-2.8,2.8h-92c-1.3,0-1.9-0.7-1.9-2v-3.6l2.8-2.8l-2.8-2.8V221l0-0.5l0-0.2c0.2-0.9,0.8-1.3,1.9-1.3h17l2.3,2.3l2.3-2.3h9.4l2.8,2.8
	l2.8-2.8H782C783.1,219,783.8,219.4,784,220.4"/>
<path class="st16" d="M909,40.3L909,40.3V41v5.3l-2.4,2.4l2.4,2.4V74c0,1.3-0.6,2-1.8,2h-33.3c-1.3,0-1.9-0.7-1.9-2v-3.6l2.8-2.8
	l-2.8-2.8V41l0-0.5l0-0.2c0.2-0.9,0.8-1.3,1.9-1.3h33C908.1,39,908.8,39.5,909,40.3"/>
<path class="st14" d="M909,40.3c-0.2-0.9-0.9-1.3-2-1.3h-33c-1.1,0-1.7,0.4-1.9,1.3l0,0.2l0,0.5v23.9l2.8,2.8l-2.8,2.8V74
	c0,1.3,0.6,2,1.9,2h33.3c1.2,0,1.8-0.7,1.8-2V51.1l-2.4-2.4l2.4-2.4V41V40.3L909,40.3 M907,37c2.3,0,3.6,1,4,3l0,1v33l0,1
	c-0.3,2-1.6,3-4,3h-33c-2.3,0-3.6-1-3.9-3l-0.1-1V41l0.1-1c0.3-2,1.6-3,3.9-3H907"/>
<path class="st15" d="M907,37h-33c-2.3,0-3.6,1-3.9,3l-0.1,1v33l0.1,1c0.3,2,1.6,3,3.9,3h33c2.3,0,3.6-1,4-3l0-1V41l0-1
	C910.6,38,909.3,37,907,37 M913,41v33v0.3c-0.1,3.8-2.1,5.8-6,5.8h-33h-0.3h-0.2h-0.2h-0.1h-0.1h-0.1c-3.1-0.3-4.8-2-5-5.2l0-0.6V74
	V41c0-4,2-6,6-6h33C911,35,913,37,913,41"/>
<path class="st20" d="M874,97c-2.3,0-3.6,1-3.9,3.1L870,101v33l0.1,1c0.3,2,1.6,3,3.9,3h33c2.3,0,3.6-1,4-3l0-1v-33l0-0.9
	c-0.3-2-1.6-3.1-4-3.1H874 M907,95c4,0,6,2,6,6v33v0.3c-0.1,3.8-2.1,5.8-6,5.8h-33h-0.3h-0.2h-0.2h-0.1h-0.1h-0.1
	c-3.1-0.3-4.8-2-5-5.1l0-0.6V134v-33c0-4,2-6,6-6H907"/>
<path class="st19" d="M874,97h33c2.3,0,3.6,1,4,3.1l0,0.9v33l0,1c-0.3,2-1.6,3-4,3h-33c-2.3,0-3.6-1-3.9-3l-0.1-1v-33l0.1-0.9
	C870.4,98,871.7,97,874,97 M909,106.3V101l0-0.7l0,0c-0.2-0.9-0.9-1.3-2-1.3h-33c-1.1,0-1.7,0.4-1.9,1.3l0,0.2l0,0.5v23.9l2.8,2.8
	l-2.8,2.7v3.6c0,1.3,0.6,2,1.9,2h33.3c1.2,0,1.8-0.7,1.8-2v-22.9l-2.4-2.4L909,106.3"/>
<path class="st18" d="M909,106.3l-2.4,2.4l2.4,2.4V134c0,1.3-0.6,2-1.8,2h-33.3c-1.3,0-1.9-0.7-1.9-2v-3.6l2.8-2.7l-2.8-2.8V101
	l0-0.5l0-0.2c0.2-0.9,0.8-1.3,1.9-1.3h33c1.1,0,1.8,0.5,2,1.3l0,0l0,0.7V106.3"/>
<path class="st22" d="M872,161l0-0.5l0-0.2c0.2-0.9,0.8-1.3,1.9-1.3h33c1.1,0,1.8,0.4,2,1.4l0-0.1l0,0.7v5.3l-2.4,2.4l2.4,2.4V194
	c0,1.3-0.6,2-1.8,2h-33.3c-1.3,0-1.9-0.7-1.9-2v-3.6l2.8-2.8l-2.8-2.8V161"/>
<path class="st23" d="M872,161v23.9l2.8,2.8l-2.8,2.8v3.6c0,1.3,0.6,2,1.9,2h33.3c1.2,0,1.8-0.7,1.8-2v-22.9l-2.4-2.4l2.4-2.4V161
	l0-0.7l0,0.1c-0.2-0.9-0.9-1.4-2-1.4h-33c-1.1,0-1.7,0.4-1.9,1.3l0,0.2L872,161 M870.1,160.1c0.3-2,1.6-3.1,3.9-3.1h33
	c2.3,0,3.6,1,4,3.1l0,0.9v33l0,1c-0.3,2-1.6,3-4,3h-33c-2.3,0-3.6-1-3.9-3l-0.1-1v-33L870.1,160.1"/>
<path class="st25" d="M870.1,160.1L870,161v33l0.1,1c0.3,2,1.6,3,3.9,3h33c2.3,0,3.6-1,4-3l0-1v-33l0-0.9c-0.3-2-1.6-3.1-4-3.1h-33
	C871.7,157,870.4,158,870.1,160.1 M874,155h33c4,0,6,2,6,6v33.3c-0.1,3.8-2.1,5.8-6,5.8h-33h-0.3h-0.2h-0.2h-0.1h-0.1h-0.1
	c-3.1-0.3-4.8-2-5-5.1l0-0.6V161C868,157,870,155,874,155"/>
<path class="st26" d="M911,220.1l0,0.9v33l0,1c-0.3,2-1.6,3-4,3h-33c-2.3,0-3.6-1-3.9-3l-0.1-1v-33l0.1-0.9c0.3-2,1.6-3.1,3.9-3.1
	h33C909.3,217,910.6,218,911,220.1 M907,219h-33c-1.1,0-1.7,0.4-1.9,1.3l0,0.2l0,0.5v23.9l2.8,2.8l-2.8,2.8v3.6c0,1.3,0.6,2,1.9,2
	h33.3c1.2,0,1.8-0.7,1.8-2v-22.9l-2.4-2.4l2.4-2.4V221l0-0.7l0,0.1C908.8,219.4,908.1,219,907,219"/>
<path class="st27" d="M911,220.1c-0.3-2-1.6-3.1-4-3.1h-33c-2.3,0-3.6,1-3.9,3.1L870,221v33l0.1,1c0.3,2,1.6,3,3.9,3h33
	c2.3,0,3.6-1,4-3l0-1v-33L911,220.1 M913,221v33v0.3c-0.1,3.8-2.1,5.8-6,5.8h-33h-0.3h-0.2h-0.2h-0.1h-0.1h-0.1
	c-3.1-0.3-4.8-2-5-5.1l0-0.6V254v-33c0-4,2-6,6-6h33C911,215,913,217,913,221"/>
<path class="st28" d="M907,219c1.1,0,1.8,0.4,2,1.4l0-0.1l0,0.7v5.3l-2.4,2.4l2.4,2.4V254c0,1.3-0.6,2-1.8,2h-33.3
	c-1.3,0-1.9-0.7-1.9-2v-3.6l2.8-2.8l-2.8-2.8V221l0-0.5l0-0.2c0.2-0.9,0.8-1.3,1.9-1.3H907"/>
<path class="st23" d="M144,378.3l1.8,1.8l-1.8,1.7v4.9l2.8,2.8l-2.8,2.8V403c0,2,1,3,3.1,3h8.8l2.2-2.2l2.2,2.2h72.6
	c2.1,0,3.1-1,3.1-3v-5.7l-4.1-4.1l4.1-4.1v-55.1l-3.1-3.1l3.1-3.1V317c0-2-1-3-3.1-3h-38.5l-2.9,2.9l-2.9-2.9h-41.6
	c-2,0-3.1,1-3.1,3V378.3 M142,403V317c0-3.4,1.7-5,5.1-5h85.8c3.4,0,5.1,1.7,5.1,5V403c0,3.4-1.7,5-5.1,5h-85.8
	C143.7,408,142,406.3,142,403"/>
<path class="st22" d="M144,378.3V317c0-2,1-3,3.1-3h41.6l2.9,2.9l2.9-2.9h38.5c2.1,0,3.1,1,3.1,3v10.6l-3.1,3.1l3.1,3.1V389
	l-4.1,4.1l4.1,4.1v5.7c0,2-1,3-3.1,3h-72.6l-2.2-2.2l-2.2,2.2h-8.8c-2,0-3.1-1-3.1-3v-10.7l2.8-2.8l-2.8-2.8v-4.9l1.8-1.7L144,378.3
	"/>
<path class="st25" d="M142,403c0,3.4,1.7,5,5.1,5h85.8c3.4,0,5.1-1.7,5.1-5V317c0-3.4-1.7-5-5.1-5h-85.8c-3.4,0-5.1,1.7-5.1,5V403
	 M140,403V317c0-4.7,2.3-7,7.1-7h85.8c2.4,0,4.1,0.6,5.3,1.9c1.2,1.1,1.9,2.9,1.9,5.2V403c0,2.3-0.6,4.1-1.9,5.2
	c-1.1,1.2-2.9,1.9-5.3,1.9h-85.8C142.3,410,140,407.6,140,403"/>
<path class="st19" d="M84.3,314l-2.8,2.9l-2.9-2.9H37c-2,0-3,1-3,3v61.2l1.8,1.8l-1.8,1.7v4.9l2.8,2.8l-2.8,2.8V403c0,2,1,3,3,3h8.8
	l2.2-2.2l2.2,2.2h72.7c2.1,0,3.1-1,3.1-3v-5.7l-4.1-4.1l4.1-4.1v-55.1l-3.1-3.1l3.1-3.1V317c0-2-1-3-3.1-3H84.3 M32,403V317
	c0-3.4,1.7-5,5-5h85.9c3.4,0,5.1,1.7,5.1,5V403c0,3.4-1.7,5-5.1,5H37C33.7,408,32,406.3,32,403"/>
<path class="st18" d="M84.3,314h38.6c2.1,0,3.1,1,3.1,3v10.6l-3.1,3.1l3.1,3.1V389l-4.1,4.1l4.1,4.1v5.7c0,2-1,3-3.1,3H50.3
	l-2.2-2.2l-2.2,2.2H37c-2,0-3-1-3-3v-10.7l2.8-2.8l-2.8-2.8v-4.9l1.8-1.7l-1.8-1.8V317c0-2,1-3,3-3h41.5l2.9,2.9L84.3,314"/>
<path class="st20" d="M128.1,311.9c1.2,1.1,1.9,2.9,1.9,5.2V403c0,2.3-0.6,4.1-1.9,5.2c-1.1,1.2-2.9,1.9-5.2,1.9H37
	c-4.7,0-7-2.4-7-7V317c0-4.7,2.4-7,7-7h85.9C125.3,310,127,310.6,128.1,311.9 M32,403c0,3.4,1.7,5,5,5h85.9c3.4,0,5.1-1.7,5.1-5V317
	c0-3.4-1.7-5-5.1-5H37c-3.4,0-5,1.7-5,5V403"/>
<path class="st15" d="M191.5,206.9l-2.9-2.9h-41.6c-2,0-3.1,1-3.1,3.1v61.2l1.8,1.8l-1.8,1.7v4.9l2.8,2.8l-2.8,2.8V293
	c0,2,1,3,3.1,3h8.8l2.2-2.2l2.2,2.2h72.6c2.1,0,3.1-1,3.1-3v-5.7l-4.1-4.1l4.1-4.1v-55.1l-3.1-3.1l3.1-3.1v-10.6c0-2-1-3.1-3.1-3.1
	h-38.5L191.5,206.9 M238,207.1V293c0,3.4-1.7,5-5.1,5h-85.8c-3.4,0-5.1-1.7-5.1-5v-85.9c0-3.4,1.7-5.1,5.1-5.1h85.8
	C236.3,202,238,203.7,238,207.1"/>
<path class="st16" d="M191.5,206.9l2.9-2.9h38.5c2.1,0,3.1,1,3.1,3.1v10.6l-3.1,3.1l3.1,3.1V279l-4.1,4.1l4.1,4.1v5.7c0,2-1,3-3.1,3
	h-72.6l-2.2-2.2l-2.2,2.2h-8.8c-2,0-3.1-1-3.1-3v-10.7l2.8-2.8l-2.8-2.8v-4.9l1.8-1.7l-1.8-1.8v-61.2c0-2,1-3.1,3.1-3.1h41.6
	L191.5,206.9"/>
<path class="st17" d="M240,207.1V293c0,2.3-0.6,4.1-1.9,5.2c-1.1,1.2-2.9,1.9-5.3,1.9h-85.8c-4.7,0-7.1-2.4-7.1-7v-85.9
	c0-4.7,2.3-7.1,7.1-7.1h85.8c2.4,0,4.1,0.6,5.3,1.9C239.4,203,240,204.7,240,207.1 M238,207.1c0-3.4-1.7-5.1-5.1-5.1h-85.8
	c-3.4,0-5.1,1.7-5.1,5.1V293c0,3.4,1.7,5,5.1,5h85.8c3.4,0,5.1-1.7,5.1-5V207.1"/>
<path class="st30" d="M37,202h85.9c3.4,0,5.1,1.7,5.1,5.1V293c0,3.4-1.7,5-5.1,5H37c-3.4,0-5-1.7-5-5v-85.9
	C32,203.7,33.7,202,37,202 M37,204c-2,0-3,1-3,3.1v61.2l1.8,1.8l-1.8,1.7v4.9l2.8,2.8l-2.8,2.8V293c0,2,1,3,3,3h8.8l2.2-2.2l2.2,2.2
	h72.7c2.1,0,3.1-1,3.1-3v-5.7l-4.1-4.1l4.1-4.1v-55.1l-3.1-3.1l3.1-3.1v-10.6c0-2-1-3.1-3.1-3.1H84.3l-2.8,2.9l-2.9-2.9H37"/>
<path class="st31" d="M37,204h41.5l2.9,2.9l2.8-2.9h38.6c2.1,0,3.1,1,3.1,3.1v10.6l-3.1,3.1l3.1,3.1V279l-4.1,4.1l4.1,4.1v5.7
	c0,2-1,3-3.1,3H50.3l-2.2-2.2l-2.2,2.2H37c-2,0-3-1-3-3v-10.7l2.8-2.8l-2.8-2.8v-4.9l1.8-1.7l-1.8-1.8v-61.2C34,205,35,204,37,204"
	/>
<path class="st22" d="M37,200h85.9c2.4,0,4.1,0.6,5.2,1.9c1.2,1.1,1.9,2.9,1.9,5.2V293c0,2.3-0.6,4.1-1.9,5.2
	c-1.1,1.2-2.9,1.9-5.2,1.9H37c-4.7,0-7-2.4-7-7v-85.9C30,202.3,32.4,200,37,200 M37,202c-3.4,0-5,1.7-5,5.1V293c0,3.4,1.7,5,5,5
	h85.9c3.4,0,5.1-1.7,5.1-5v-85.9c0-3.4-1.7-5.1-5.1-5.1H37"/>
<path class="st13" d="M126,537c0-2-1.1-3-3.1-3H84.3l-2.8,2.9l-2.9-2.9H37c-2,0-3,1-3,3V535c0-2,1-3,3-3h41.5l2.9,2.9l2.8-2.9h38.6
	c2.1,0,3.1,1,3.1,3V537 M34.8,599l1,1l-1.8,1.7v-2L34.8,599 M35.8,608.5l1,1l-2.8,2.8v-2L35.8,608.5 M126,617.3l-4.1-4.1l1-1
	l3.1,3.1V617.3 M126,553.8l-3.1-3.1l1-1l2.1,2.1V553.8"/>
<path class="st18" d="M126,553.8V609l-3.1,3.2l-1,1l4.1,4.1v5.7c0,2-1,3-3.1,3H50.3l-2.2-2.2l-2.2,2.2H37c-2,0-3-1-3-3v-10.7
	l2.8-2.8l-1-1l-1.8-1.8v-5l1.8-1.7l-1-1l-0.8-0.8V537c0-2,1-3,3-3h41.5l2.9,2.9l2.8-2.9h38.6c2,0,3.1,1,3.1,3v10.6l-2.1,2.2l-1,1
	L126,553.8"/>
<path class="st13" d="M236,537c0-2-1.1-3-3.1-3h-38.5l-2.9,2.9l-2.9-2.9h-41.6c-2,0-3,1-3.1,3V535c0-2,1-3,3.1-3h41.6l2.9,2.9
	l2.9-2.9h38.5c2.1,0,3.1,1,3.1,3V537 M144.8,599l1,1l-1.8,1.7v-2L144.8,599 M145.8,608.5l1,1l-2.8,2.8v-2L145.8,608.5 M236,617.3
	l-4.1-4.1l1-1l3.1,3.1V617.3 M236,553.8l-3.1-3.1l1-1l2.1,2.1V553.8"/>
<path class="st22" d="M236,553.8V609l-3.1,3.2l-1,1l4.1,4.1v5.7c0,2-1,3-3.1,3h-72.6l-2.2-2.2l-2.2,2.2h-8.8c-2,0-3.1-1-3.1-3v-10.7
	l2.8-2.8l-1-1l-1.8-1.8v-5l1.8-1.7l-1-1l-0.8-0.8V537c0-2,1.1-3,3.1-3h41.6l2.9,2.9l2.9-2.9h38.5c2,0,3.1,1,3.1,3v10.6l-2.1,2.2
	l-1,1L236,553.8"/>
<path class="st13" d="M144,427V425c0-2,1-3,3.1-3h41.6l2.9,2.9l2.9-2.9h38.5c2.1,0,3.1,1,3.1,3v1.9c0-2-1.1-3-3.1-3h-38.5l-2.9,2.9
	l-2.9-2.9h-41.6C145.1,424,144,425,144,427 M233.9,439.8l2.1,2.1v2l-3.1-3.1L233.9,439.8 M232.9,502.1l3.1,3.1v2l-4.1-4.1
	L232.9,502.1 M144,502.3v-2l1.8-1.8l1,1L144,502.3 M144,491.7v-2l0.8-0.7l1,1L144,491.7"/>
<path class="st16" d="M144,491.7l1.8-1.7l-1-1l-0.8-0.8V427c0-2,1.1-3,3.1-3h41.6l2.9,2.9l2.9-2.9h38.5c2,0,3.1,1,3.1,3v10.6
	l-2.1,2.1l-1,1l3.1,3.1V499l-3.1,3.1l-1,1l4.1,4.1v5.7c0,2-1,3-3.1,3h-72.6l-2.2-2.2l-2.2,2.2h-8.8c-2,0-3.1-1-3.1-3v-10.7l2.8-2.8
	l-1-1l-1.8-1.8V491.7"/>
<path class="st13" d="M34,427V425c0-2,1-3,3-3h41.5l2.9,2.9l2.8-2.9h38.6c2.1,0,3.1,1,3.1,3v1.9c0-2-1.1-3-3.1-3H84.3l-2.8,2.9
	l-2.9-2.9H37C35,424,34,425,34,427 M123.9,439.8l2.1,2.1v2l-3.1-3.1L123.9,439.8 M122.9,502.1l3.1,3.1v2l-4.1-4.1L122.9,502.1
	 M34,502.3v-2l1.8-1.8l1,1L34,502.3 M34,491.7v-2l0.8-0.7l1,1L34,491.7"/>
<path class="st31" d="M34,491.7l1.8-1.7l-1-1l-0.8-0.8V427c0-2,1-3,3-3h41.5l2.9,2.9l2.8-2.9h38.6c2,0,3.1,1,3.1,3v10.6l-2.1,2.1
	l-1,1l3.1,3.1V499l-3.1,3.1l-1,1l4.1,4.1v5.7c0,2-1,3-3.1,3H50.3l-2.2-2.2l-2.2,2.2H37c-2,0-3-1-3-3v-10.7l2.8-2.8l-1-1l-1.8-1.8
	V491.7"/>
<path class="st32" d="M258.5,373.8l-0.4-1.3c-0.2-0.5-0.1-1,0.1-1.4c0.2-0.4,0.5-0.8,0.9-0.9l1.4-0.1l11.3,3
	c0.5,0.1,0.9,0.4,1.2,0.9l8.5,13.4l-1.5,1.5l-8.8-13.9l-11.3-3l3,11.3l13.9,8.8l-1.4,1.5L262,385c-0.5-0.3-0.8-0.7-0.9-1.2
	L258.5,373.8"/>
<path class="st13" d="M258.5,373.8l2.7,10c0.1,0.5,0.4,0.9,0.9,1.2l13.5,8.5l-1.6,1.6l-0.2,0.2L262,388c-0.5-0.3-0.8-0.7-0.9-1.2
	l-3-11.3c-0.2-0.5-0.1-1,0.1-1.4L258.5,373.8 M287.9,390.8l0.1,0.1c0.4,0.4,0.5,0.8,0.5,1.4c0,0.5-0.2,1-0.5,1.4l-0.1,0.1l-1.5-1.5
	L287.9,390.8 M291.5,399l0.1,0.1c0.4,0.4,0.6,0.8,0.6,1.4s-0.2,1.1-0.6,1.5l-4.6,4.6c-0.4,0.4-0.9,0.6-1.5,0.6s-1-0.2-1.4-0.6
	l-1.3-1.3c-0.4-0.4-0.6-0.9-0.6-1.5l0-0.4l-2-2l-1.6,1.6c-0.4,0.4-0.9,0.5-1.4,0.5c-0.6,0-1-0.2-1.4-0.5l-2-2
	c-0.4-0.4-0.6-0.9-0.6-1.5s0.2-1,0.6-1.4l0.1-0.1l1.9,1.9c0.4,0.4,0.8,0.5,1.4,0.5c0.5,0,1-0.2,1.4-0.5l1.6-1.6l2,2l0,0.4
	c0,0.6,0.2,1.1,0.6,1.5l1.3,1.3c0.4,0.4,0.8,0.6,1.4,0.6s1.1-0.2,1.5-0.6L291.5,399"/>
<path class="st33" d="M276.9,392l-13.9-8.8l-3-11.3l19.9,19.9l-1.3,1.2L276.9,392"/>
<path class="st34" d="M276.9,392l1.8,1.1l-3.4,3.4l2,2l3-3l4.6,4.6l-0.6,0.6l1.3,1.3l4.6-4.6l-1.3-1.3l-0.6,0.6l-4.6-4.6l3-3l-2-2
	l-3.4,3.4l-1.1-1.8l1.5-1.5l1.6-1.5l0.4-0.3c0.3-0.2,0.6-0.3,1-0.3l1.1,0.3l0.4,0.3l2,2c0.4,0.4,0.5,0.8,0.5,1.4
	c0,0.5-0.2,1-0.5,1.4l-0.1,0.1l-1.5,1.5l1.5,1.5l0.5,0.5l0.4,0c0.6,0,1.1,0.2,1.5,0.6l1.3,1.3c0.4,0.4,0.6,0.8,0.6,1.4
	s-0.2,1.1-0.6,1.5l-0.1,0l-4.5,4.5c-0.4,0.4-0.9,0.6-1.5,0.6s-1-0.2-1.4-0.6l-1.3-1.3c-0.4-0.4-0.6-0.9-0.6-1.5l0-0.4l-2-2l-1.6,1.6
	c-0.4,0.4-0.9,0.5-1.4,0.5c-0.6,0-1-0.2-1.4-0.5L274,398l-0.1-0.1c-0.4-0.4-0.6-0.9-0.6-1.5c0-0.5,0.1-0.9,0.4-1.2l0.2-0.2l1.6-1.6
	L276.9,392"/>
<path class="st35" d="M278.6,393.1l1.3-1.2l1.3-1.3l3.4-3.4l2,2l-3,3l-3.3,3.3l-3,3l-2-2L278.6,393.1 M288.1,396.9l0.6-0.6l1.3,1.3
	l-4.6,4.6l-1.3-1.3l0.6-0.6L288.1,396.9"/>
<path class="st36" d="M260,372l11.3,3l8.8,13.9l1.1,1.8l-1.3,1.3L260,372"/>
<path class="st37" d="M280.3,395.5l3.3-3.3l4.6,4.6l-3.3,3.3L280.3,395.5"/>
<path class="st34" d="M298.5,373.8l-0.4-1.3c-0.2-0.5-0.1-1,0.1-1.4c0.2-0.4,0.5-0.8,0.9-0.9l1.4-0.1l11.3,3
	c0.5,0.1,0.9,0.4,1.2,0.9l8.5,13.4l1.6-1.5l0.4-0.3c0.3-0.2,0.6-0.3,1-0.3s0.8,0.1,1.1,0.3l0.4,0.3l2,2c0.4,0.4,0.5,0.8,0.5,1.4
	c0,0.5-0.2,1-0.5,1.4l-0.1,0.1l-1.5,1.5l1.5,1.5l0.5,0.5l0.4,0c0.6,0,1.1,0.2,1.5,0.6l1.3,1.3c0.4,0.4,0.6,0.8,0.6,1.4
	s-0.2,1.1-0.6,1.5l-0.1,0l-4.5,4.5c-0.4,0.4-0.9,0.6-1.5,0.6s-1-0.2-1.4-0.6l-1.3-1.3c-0.4-0.4-0.6-0.9-0.6-1.5l0-0.4l-2-2l-1.6,1.6
	c-0.4,0.4-0.9,0.5-1.4,0.5c-0.6,0-1-0.2-1.4-0.5L314,398l-0.1-0.1c-0.4-0.4-0.6-0.9-0.6-1.5c0-0.5,0.1-0.9,0.4-1.2l0.2-0.2l1.6-1.6
	L302,385c-0.5-0.3-0.8-0.7-0.9-1.2L298.5,373.8 M323.5,392.3l3-3l-2-2l-3.4,3.4l-9.9-15.6l-11.3-3l3,11.3l15.6,9.9l-3.4,3.4l2,2l3-3
	l4.6,4.6l-0.6,0.6l1.3,1.3l4.6-4.6l-1.3-1.3l-0.6,0.6L323.5,392.3"/>
<path class="st35" d="M323.5,392.3l-3.3,3.3l-3,3l-2-2l3.4-3.4l1.3-1.2l1.3-1.3l3.4-3.4l2,2L323.5,392.3 M328.1,396.9l0.6-0.6
	l1.3,1.3l-4.6,4.6l-1.3-1.3l0.6-0.6L328.1,396.9"/>
<path class="st13" d="M327.9,390.8l0.1,0.1c0.4,0.4,0.5,0.8,0.5,1.4c0,0.5-0.2,1-0.5,1.4l-0.1,0.1l-1.5-1.5L327.9,390.8 M331.5,399
	l0.1,0.1c0.4,0.4,0.6,0.8,0.6,1.4s-0.2,1.1-0.6,1.5l-4.6,4.6c-0.4,0.4-0.9,0.6-1.5,0.6s-1-0.2-1.4-0.6l-1.3-1.3
	c-0.4-0.4-0.6-0.9-0.6-1.5l0-0.4l-2-2l-1.6,1.6c-0.4,0.4-0.9,0.5-1.4,0.5c-0.6,0-1-0.2-1.4-0.5l-2-2c-0.4-0.4-0.6-0.9-0.6-1.5
	s0.2-1,0.6-1.4l0.1-0.1l1.9,1.9c0.4,0.4,0.8,0.5,1.4,0.5c0.5,0,1-0.2,1.4-0.5l1.6-1.6l2,2l0,0.4c0,0.6,0.2,1.1,0.6,1.5l1.3,1.3
	c0.4,0.4,0.8,0.6,1.4,0.6s1.1-0.2,1.5-0.6L331.5,399 M313.6,395.3L302,388c-0.5-0.3-0.8-0.7-0.9-1.2l-3-11.3c-0.2-0.5-0.1-1,0.1-1.4
	l0.3-0.4l2.7,10c0.1,0.5,0.4,0.9,0.9,1.2l13.5,8.5l-1.6,1.6L313.6,395.3"/>
<path class="st38" d="M318.6,393.1l-15.6-9.9l-3-11.3l19.9,19.9L318.6,393.1"/>
<path class="st37" d="M323.5,392.3l4.6,4.6l-3.3,3.3l-4.6-4.6L323.5,392.3"/>
<path class="st39" d="M300,372l11.3,3l9.9,15.6l-1.3,1.3L300,372"/>
<path class="st40" d="M338.5,373.8l-0.4-1.3c-0.2-0.5-0.1-1,0.1-1.4c0.2-0.4,0.5-0.8,0.9-0.9l1.4-0.1l11.3,3
	c0.5,0.1,0.9,0.4,1.2,0.9l8.5,13.4l-1.5,1.5l-8.8-13.9l-11.3-3l3,11.3l13.9,8.8l-1.4,1.5L342,385c-0.5-0.3-0.8-0.7-0.9-1.2
	L338.5,373.8"/>
<path class="st13" d="M338.5,373.8l2.7,10c0.1,0.5,0.4,0.9,0.9,1.2l13.5,8.5l-1.6,1.6l-0.2,0.2L342,388c-0.5-0.3-0.8-0.7-0.9-1.2
	l-3-11.3c-0.2-0.5-0.1-1,0.1-1.4L338.5,373.8 M367.9,390.8l0.1,0.1c0.4,0.4,0.5,0.8,0.5,1.4c0,0.5-0.2,1-0.5,1.4l-0.1,0.1l-1.5-1.5
	L367.9,390.8 M371.5,399l0.1,0.1c0.4,0.4,0.6,0.8,0.6,1.4s-0.2,1.1-0.6,1.5l-4.6,4.6c-0.4,0.4-0.9,0.6-1.5,0.6s-1-0.2-1.4-0.6
	l-1.3-1.3c-0.4-0.4-0.6-0.9-0.6-1.5l0-0.4l-2-2l-1.6,1.6c-0.4,0.4-0.9,0.5-1.4,0.5c-0.6,0-1-0.2-1.4-0.5l-2-2
	c-0.4-0.4-0.6-0.9-0.6-1.5s0.2-1,0.6-1.4l0.1-0.1l1.9,1.9c0.4,0.4,0.8,0.5,1.4,0.5c0.5,0,1-0.2,1.4-0.5l1.6-1.6l2,2l0,0.4
	c0,0.6,0.2,1.1,0.6,1.5l1.3,1.3c0.4,0.4,0.8,0.6,1.4,0.6s1.1-0.2,1.5-0.6L371.5,399"/>
<path class="st41" d="M356.9,392l-13.9-8.8l-3-11.3l19.9,19.9l-1.3,1.2L356.9,392"/>
<path class="st34" d="M356.9,392l1.8,1.1l-3.4,3.4l2,2l3-3l4.6,4.6l-0.6,0.6l1.3,1.3l4.6-4.6l-1.3-1.3l-0.6,0.6l-4.6-4.6l3-3l-2-2
	l-3.4,3.4l-1.1-1.8l1.5-1.5l1.6-1.5l0.4-0.3c0.3-0.2,0.6-0.3,1-0.3s0.8,0.1,1.1,0.3l0.4,0.3l2,2c0.4,0.4,0.5,0.8,0.5,1.4
	c0,0.5-0.2,1-0.5,1.4l-0.1,0.1l-1.5,1.5l1.5,1.5l0.5,0.5l0.4,0c0.6,0,1.1,0.2,1.5,0.6l1.3,1.3c0.4,0.4,0.6,0.8,0.6,1.4
	s-0.2,1.1-0.6,1.5l-0.1,0l-4.5,4.5c-0.4,0.4-0.9,0.6-1.5,0.6s-1-0.2-1.4-0.6l-1.3-1.3c-0.4-0.4-0.6-0.9-0.6-1.5l0-0.4l-2-2l-1.6,1.6
	c-0.4,0.4-0.9,0.5-1.4,0.5c-0.6,0-1-0.2-1.4-0.5L354,398l-0.1-0.1c-0.4-0.4-0.6-0.9-0.6-1.5c0-0.5,0.1-0.9,0.4-1.2l0.2-0.2l1.6-1.6
	L356.9,392"/>
<path class="st35" d="M359.9,391.9l1.3-1.3l3.4-3.4l2,2l-3,3l-3.3,3.3l-3,3l-2-2l3.4-3.4L359.9,391.9 M368.1,396.9l0.6-0.6l1.3,1.3
	l-4.6,4.6l-1.3-1.3l0.6-0.6L368.1,396.9"/>
<path class="st37" d="M368.1,396.9l-3.3,3.3l-4.6-4.6l3.3-3.3L368.1,396.9"/>
<path class="st42" d="M340,372l11.3,3l8.8,13.9l1.1,1.8l-1.3,1.3L340,372"/>
<path class="st43" d="M261.3,282.4c-0.5,0.3-0.9,0.8-1.1,1.4l-0.1,0.2c-0.2,0.7-0.1,1.4,0.3,2l4.1,7.2c-0.8-0.2-1.5-0.1-2.2,0.3
	c-0.5,0.3-0.8,0.7-1,1.1l-0.1,0.4l-0.1,0.3l0,0.1c-0.2,0.8-0.1,1.5,0.3,2.1c0.4,0.7,1,1.1,1.8,1.3l5.5,1.6l0.7,1
	c0.6,1,1.7,1.4,3.4,1.4c1.7,0,3.4-0.6,5.3-1.6c1.9-1.1,3.3-2.3,4.1-3.8c0.9-1.4,1-2.6,0.5-3.6l-4.7-8.1c-0.6-1-1.7-1.4-3.3-1.4
	c-1.7,0.1-3.5,0.6-5.4,1.7l-1.6,1.1l-0.4,0.3l-2.2-3.9c-0.4-0.6-0.9-1-1.6-1.2C262.6,281.9,261.9,282,261.3,282.4L261.3,282.4
	 M258.3,286.1c-0.3-0.9-0.4-1.8-0.1-2.8c0.3-1.1,0.9-2,1.9-2.6l0.3-0.2c1-0.6,2.2-0.8,3.4-0.5c1.2,0.3,2.2,1,2.9,2.1l1.1,2l0.4-0.3
	l0,0c2.2-1.3,4.3-1.9,6.3-2c2.6,0,4.3,0.8,5.1,2.4l4.7,8.1v0.1c0.7,1.1,0.9,2.3,0.4,3.8l-0.9,1.9c-1,1.7-2.6,3.2-4.9,4.5
	c-2.2,1.2-4.2,1.9-6.1,1.9h-0.1c-2.6,0.1-4.4-0.7-5.2-2.4l-0.2-0.3l-4.8-1.4h0.1c-1.4-0.3-2.4-1-3.1-2.3v0l-0.4-0.9
	c-0.3-0.9-0.3-1.8-0.1-2.8l0.1-0.4c0.2-0.7,0.5-1.2,1-1.7c0.3-0.3,0.7-0.6,1.1-0.9l0.1-0.1l-2.7-4.7L258.3,286.1"/>
<path class="st15" d="M261.3,282.4L261.3,282.4c0.6-0.4,1.3-0.5,2-0.3c0.7,0.2,1.2,0.6,1.6,1.2l2.2,3.9l0.4-0.3l1.6-1.1
	c1.9-1.1,3.6-1.6,5.4-1.7c1.7,0,2.8,0.4,3.3,1.4l4.7,8.1c0.6,1,0.4,2.2-0.5,3.6c-0.9,1.5-2.3,2.7-4.1,3.8c-1.9,1.1-3.6,1.6-5.3,1.6
	c-1.7,0.1-2.8-0.4-3.4-1.4l-0.7-1l-5.5-1.6c-0.8-0.2-1.4-0.6-1.8-1.3c-0.4-0.7-0.5-1.4-0.3-2.1l0-0.1l0.1-0.3l0.1-0.4
	c0.2-0.4,0.6-0.8,1-1.1c0.7-0.4,1.4-0.5,2.2-0.3l-4.1-7.2c-0.4-0.6-0.5-1.3-0.3-2l0.1-0.2C260.4,283.1,260.8,282.7,261.3,282.4"/>
<path class="st13" d="M284.6,296.4c0.6,1.4,0.3,3-0.9,4.9c-1,1.7-2.6,3.2-4.9,4.5c-2.2,1.2-4.2,1.9-6.1,1.9h-0.1
	c-2.6,0.1-4.4-0.7-5.2-2.4l-0.2-0.3l-4.8-1.4h0.1c-1.4-0.3-2.4-1-3.1-2.3v0c-0.7-1.2-0.9-2.4-0.5-3.7l0.1-0.3l0.4,0.9v0
	c0.7,1.2,1.7,2,3.1,2.3h-0.1l4.8,1.4l0.2,0.3c0.8,1.7,2.6,2.5,5.2,2.4h0.1c1.9,0,4-0.7,6.1-1.9c2.2-1.3,3.8-2.8,4.9-4.5L284.6,296.4
	 M260.1,292.6l-1.5-2.6c-0.7-1.1-0.8-2.3-0.4-3.6l0.1-0.3l0.4,0.8l2.7,4.7l-0.1,0.1C260.8,292,260.4,292.3,260.1,292.6"/>
<path class="st44" d="M298.3,286.1c-0.3-0.9-0.4-1.8-0.1-2.8c0.3-1.1,0.9-2,1.9-2.6l0.3-0.2c1-0.6,2.2-0.8,3.4-0.5
	c1.2,0.3,2.2,1,2.9,2.1l1.1,2l0.4-0.3l0,0c2.2-1.3,4.3-1.9,6.3-2c2.6,0,4.3,0.8,5.1,2.4l4.7,8.1v0.1c0.7,1.1,0.9,2.3,0.4,3.8
	l-0.9,1.9c-1,1.7-2.6,3.2-4.9,4.5c-2.2,1.2-4.2,1.9-6.1,1.9h-0.1c-2.6,0.1-4.4-0.7-5.2-2.4l-0.2-0.3l-4.8-1.4h0.1
	c-1.4-0.3-2.4-1-3.1-2.3v0l-0.4-0.9c-0.3-0.9-0.3-1.8-0.1-2.8l0.1-0.4c0.2-0.7,0.5-1.2,1-1.7c0.3-0.3,0.7-0.6,1.1-0.9l0.1-0.1
	l-2.7-4.7L298.3,286.1 M300.2,283.8l-0.1,0.2c-0.2,0.7-0.1,1.4,0.3,2l4.1,7.2c-0.8-0.2-1.5-0.1-2.2,0.3c-0.5,0.3-0.8,0.7-1,1.1
	l-0.1,0.4l-0.1,0.3l0,0.1c-0.2,0.8-0.1,1.5,0.3,2.1c0.4,0.7,1,1.1,1.8,1.3l5.5,1.6l0.7,1c0.6,1,1.7,1.4,3.4,1.4
	c1.7,0,3.4-0.6,5.3-1.6c1.9-1.1,3.3-2.3,4.1-3.8c0.9-1.4,1-2.6,0.5-3.6l-4.7-8.1c-0.6-1-1.7-1.4-3.3-1.4c-1.7,0.1-3.5,0.6-5.4,1.7
	c-0.6,0.3-1.1,0.7-1.6,1.1l-0.4,0.3l-2.2-3.9c-0.4-0.6-0.9-1-1.6-1.2c-0.7-0.2-1.4-0.1-1.9,0.3l-0.1,0
	C300.8,282.7,300.4,283.1,300.2,283.8"/>
<path class="st31" d="M300.2,283.8c0.2-0.6,0.6-1.1,1.1-1.4l0.1,0c0.6-0.3,1.3-0.4,1.9-0.3c0.7,0.2,1.2,0.6,1.6,1.2l2.2,3.9l0.4-0.3
	c0.5-0.4,1-0.8,1.6-1.1c1.9-1.1,3.6-1.6,5.4-1.7c1.7,0,2.8,0.4,3.3,1.4l4.7,8.1c0.6,1,0.4,2.2-0.5,3.6c-0.9,1.5-2.3,2.7-4.1,3.8
	c-1.9,1.1-3.6,1.6-5.3,1.6c-1.7,0.1-2.8-0.4-3.4-1.4l-0.7-1l-5.5-1.6c-0.8-0.2-1.4-0.6-1.8-1.3c-0.4-0.7-0.5-1.4-0.3-2.1l0-0.1
	l0.1-0.3l0.1-0.4c0.2-0.4,0.6-0.8,1-1.1c0.7-0.4,1.4-0.5,2.2-0.3l-4.1-7.2c-0.4-0.6-0.5-1.3-0.3-2L300.2,283.8"/>
<path class="st13" d="M324.6,296.4c0.6,1.4,0.3,3-0.9,4.9c-1,1.7-2.6,3.2-4.9,4.5c-2.2,1.2-4.2,1.9-6.1,1.9h-0.1
	c-2.6,0.1-4.4-0.7-5.2-2.4l-0.2-0.3l-4.8-1.4h0.1c-1.4-0.3-2.4-1-3.1-2.3v0c-0.7-1.2-0.9-2.4-0.5-3.7l0.1-0.3l0.4,0.9v0
	c0.7,1.2,1.7,2,3.1,2.3h-0.1l4.8,1.4l0.2,0.3c0.8,1.7,2.6,2.5,5.2,2.4h0.1c1.9,0,4-0.7,6.1-1.9c2.2-1.3,3.8-2.8,4.9-4.5L324.6,296.4
	 M300.1,292.6l-1.5-2.6c-0.7-1.1-0.8-2.3-0.4-3.6l0.1-0.3l0.4,0.8l2.7,4.7l-0.1,0.1C300.8,292,300.4,292.3,300.1,292.6"/>
<path class="st45" d="M338.3,286.1c-0.3-0.9-0.4-1.8-0.1-2.8c0.3-1.1,0.9-2,1.9-2.6l0.3-0.2c1-0.6,2.2-0.8,3.4-0.5s2.2,1,2.9,2.1
	l1.1,2l0.4-0.3l0,0c2.2-1.3,4.3-1.9,6.3-2c2.6,0,4.3,0.8,5.1,2.4l4.7,8.1v0.1c0.7,1.1,0.9,2.3,0.4,3.8l-0.9,1.9
	c-1,1.7-2.6,3.2-4.9,4.5c-2.2,1.2-4.2,1.9-6.1,1.9h-0.1c-2.6,0.1-4.4-0.7-5.2-2.4l-0.2-0.3l-4.8-1.4h0.1c-1.4-0.3-2.4-1-3.1-2.3v0
	l-0.4-0.9c-0.3-0.9-0.3-1.8-0.1-2.8l0.1-0.4c0.2-0.7,0.5-1.2,1-1.7l1.1-0.9l0.1-0.1l-2.7-4.7L338.3,286.1 M341.3,282.4
	c-0.5,0.3-0.9,0.8-1.1,1.4l-0.1,0.2c-0.2,0.7-0.1,1.4,0.3,2l4.1,7.2c-0.8-0.2-1.5-0.1-2.2,0.3c-0.5,0.3-0.8,0.7-1,1.1l-0.1,0.4
	l-0.1,0.3l0,0.1c-0.2,0.8-0.1,1.5,0.3,2.1c0.4,0.7,1,1.1,1.8,1.3l5.5,1.6l0.7,1c0.6,1,1.7,1.4,3.4,1.4c1.7,0,3.4-0.6,5.3-1.6
	c1.9-1.1,3.3-2.3,4.1-3.8c0.9-1.4,1-2.6,0.5-3.6l-4.7-8.1c-0.6-1-1.7-1.4-3.3-1.4c-1.7,0.1-3.5,0.6-5.4,1.7l-1.6,1.1l-0.4,0.3
	l-2.2-3.9c-0.4-0.6-0.9-1-1.6-1.2C342.6,281.9,341.9,282,341.3,282.4L341.3,282.4"/>
<path class="st28" d="M341.3,282.4L341.3,282.4c0.6-0.4,1.3-0.5,2-0.3c0.7,0.2,1.2,0.6,1.6,1.2l2.2,3.9l0.4-0.3l1.6-1.1
	c1.9-1.1,3.6-1.6,5.4-1.7c1.7,0,2.8,0.4,3.3,1.4l4.7,8.1c0.6,1,0.4,2.2-0.5,3.6c-0.9,1.5-2.3,2.7-4.1,3.8c-1.9,1.1-3.6,1.6-5.3,1.6
	c-1.7,0.1-2.8-0.4-3.4-1.4l-0.7-1l-5.5-1.6c-0.8-0.2-1.4-0.6-1.8-1.3c-0.4-0.7-0.5-1.4-0.3-2.1l0-0.1l0.1-0.3l0.1-0.4
	c0.2-0.4,0.6-0.8,1-1.1c0.7-0.4,1.4-0.5,2.2-0.3l-4.1-7.2c-0.4-0.6-0.5-1.3-0.3-2l0.1-0.2C340.4,283.1,340.8,282.7,341.3,282.4"/>
<path class="st13" d="M364.6,296.4c0.6,1.4,0.3,3-0.9,4.9c-1,1.7-2.6,3.2-4.9,4.5c-2.2,1.2-4.2,1.9-6.1,1.9h-0.1
	c-2.6,0.1-4.4-0.7-5.2-2.4l-0.2-0.3l-4.8-1.4h0.1c-1.4-0.3-2.4-1-3.1-2.3v0c-0.7-1.2-0.9-2.4-0.5-3.7l0.1-0.3l0.4,0.9v0
	c0.7,1.2,1.7,2,3.1,2.3h-0.1l4.8,1.4l0.2,0.3c0.8,1.7,2.6,2.5,5.2,2.4h0.1c1.9,0,4-0.7,6.1-1.9c2.2-1.3,3.8-2.8,4.9-4.5L364.6,296.4
	 M340.1,292.6l-1.5-2.6c-0.7-1.1-0.8-2.3-0.4-3.6l0.1-0.3l0.4,0.8l2.7,4.7l-0.1,0.1L340.1,292.6"/>
<path class="st46" d="M257.5,327.1l-0.2-0.4c-0.1-0.4-0.1-0.9,0.1-1.3c0.4-1.4,1.6-2.5,3.6-3.3l-0.1,0l0,0c0.3-0.2,0.6-0.2,1-0.2
	l1,0.3c1.3,0.8,2.3,1.5,3,2.3c3.1-0.5,5.8-0.2,7.9,0.7c0.3,0.1,0.5,0.3,0.8,0.6c1.7,2.1,3.3,4.9,4.8,8.3c1.8,1,3.8,1.9,6.1,2.6
	c0.4,0.1,0.8,0.4,1,0.8c0.2,0.3,0.4,0.7,0.4,1.2l0,1.5c-0.2,3-1.1,5.3-2.5,6.9c-1.7,2-4.1,3-7.5,2.9h-0.2c-2.3-0.3-4-1.6-5-3.7
	l-0.6-1.4c-5.9-1.7-10.4-4.7-13.6-9.1l-0.1-0.2c-0.2-0.4-0.3-0.8-0.3-1.3c0-0.5,0.3-1,0.7-1.3l2-1.6l0-0.1c0.3-0.2,0.7-0.4,1.1-0.4
	h0.3c-0.8-1.2-1.9-2.2-3.1-3.1L257.5,327.1 M261.8,324L261.8,324c-1.4,0.6-2.3,1.3-2.6,2.1c3,2.3,4.9,5.1,5.8,8.5
	c-1.3-0.2-2.7-0.8-4-1.7l-2,1.6c3.1,4.2,7.6,7.1,13.5,8.6l0.9,2.2c0.7,1.5,1.9,2.3,3.5,2.5c5.2,0.1,7.8-3,7.9-9.3
	c-2.7-0.8-5.1-1.9-7.1-3.1c-1.5-3.5-3.1-6.3-4.8-8.4c-1-0.4-2.1-0.7-3.4-0.8h-1.3l-2.4,0.2l-0.9,0.1
	C264.4,325.9,263.3,324.9,261.8,324"/>
<path class="st13" d="M286.7,340.1l0,0.5c0,3.7-0.9,6.5-2.5,8.4c-1.7,2-4.1,3-7.5,2.9h-0.2c-2.3-0.3-4-1.6-5-3.7l-0.6-1.4
	c-5.9-1.7-10.4-4.7-13.6-9.1c-0.3-0.4-0.4-0.9-0.4-1.5c0-0.3,0.1-0.5,0.3-0.8l0.1,0.2c3.2,4.4,7.8,7.4,13.6,9.1l0.6,1.4
	c1,2.1,2.7,3.4,5,3.7h0.2c3.3,0.1,5.8-0.9,7.5-2.9C285.6,345.4,286.5,343.1,286.7,340.1 M259.8,331.3l-1.8-1.5
	c-0.4-0.3-0.6-0.6-0.7-1c-0.1-0.4-0.1-0.9,0.1-1.3l0.1-0.4l0.5,0.6c1.2,0.9,2.3,2,3.1,3.1h-0.3C260.4,330.9,260.1,331.1,259.8,331.3
	"/>
<path class="st45" d="M261.8,324c1.5,0.9,2.6,1.9,3.2,2.8l0.9-0.1l2.4-0.2h1.3c1.2,0.1,2.4,0.3,3.4,0.8c1.7,2.1,3.3,4.9,4.8,8.4
	c2,1.2,4.4,2.3,7.1,3.1c-0.1,6.3-2.7,9.4-7.9,9.3c-1.6-0.2-2.8-1-3.5-2.5l-0.9-2.2c-5.9-1.5-10.4-4.4-13.5-8.6l2-1.6
	c1.4,0.9,2.7,1.5,4,1.7c-0.9-3.4-2.8-6.2-5.8-8.5C259.5,325.3,260.4,324.6,261.8,324L261.8,324"/>
<path class="st32" d="M326.7,340.1c-0.1,1.6-0.4,3-0.9,4.1c-0.4,1.1-0.9,2-1.6,2.8c-1.7,2-4.1,3-7.5,2.9h-0.2c-2.3-0.3-4-1.6-5-3.7
	l-0.6-1.4c-5.9-1.7-10.4-4.7-13.6-9.1l-0.1-0.2c-0.2-0.4-0.3-0.8-0.3-1.3c0-0.5,0.3-1,0.7-1.3l2-1.6l0-0.1c0.3-0.2,0.7-0.4,1.1-0.4
	h0.3c-0.8-1.2-1.9-2.2-3.1-3.1l-0.5-0.6l-0.2-0.4c-0.1-0.4-0.1-0.9,0.1-1.3c0.4-1.4,1.6-2.5,3.6-3.3l-0.1,0l0,0
	c0.3-0.2,0.6-0.2,1-0.2l1,0.3l3,2.3c3.1-0.5,5.8-0.2,7.9,0.7c0.3,0.1,0.5,0.3,0.8,0.6c1.7,2.1,3.3,4.9,4.8,8.3
	c1.8,1,3.8,1.9,6.1,2.6l0.5,0.3l0.5,0.5c0.2,0.3,0.4,0.7,0.4,1.2L326.7,340.1 M301.8,324c-1.4,0.5-2.3,1.2-2.5,2.1
	c3,2.3,4.9,5.1,5.8,8.5c-1.3-0.2-2.7-0.8-4-1.7l-2,1.6c3.1,4.2,7.6,7.1,13.5,8.6l0.9,2.2c0.7,1.5,1.9,2.3,3.5,2.5
	c5.2,0.1,7.8-3,7.9-9.3c-2.7-0.8-5.1-1.9-7.1-3.1c-1.5-3.5-3.1-6.3-4.8-8.4c-1-0.4-2.1-0.7-3.4-0.8h-1.3l-2.4,0.2l-0.9,0.1
	C304.4,325.9,303.3,324.9,301.8,324L301.8,324"/>
<path class="st13" d="M297.3,335.5l0.1,0.2c3.2,4.4,7.8,7.4,13.6,9.1l0.6,1.4c1,2.1,2.7,3.4,5,3.7h0.2c3.3,0.1,5.8-0.9,7.5-2.9
	c0.7-0.8,1.2-1.7,1.6-2.8c0.4-1.2,0.7-2.6,0.9-4.1l0,0.5c0,2.2-0.3,4.1-0.9,5.6c-0.4,1.1-0.9,2-1.6,2.7c-1.7,2-4.1,3-7.5,2.9h-0.2
	c-2.3-0.3-4-1.6-5-3.7l-0.6-1.4c-5.9-1.7-10.4-4.7-13.6-9.1c-0.3-0.4-0.4-0.9-0.4-1.5C297,336,297.1,335.8,297.3,335.5 M297.5,327.1
	l0.5,0.6c1.2,0.9,2.3,2,3.1,3.1h-0.3c-0.4,0-0.8,0.2-1.1,0.4l-1.8-1.5c-0.4-0.3-0.6-0.6-0.7-1c-0.1-0.4-0.1-0.9,0.1-1.3L297.5,327.1
	"/>
<path class="st36" d="M301.8,324L301.8,324c1.6,0.9,2.6,1.8,3.3,2.7l0.9-0.1l2.4-0.2h1.3c1.2,0.1,2.4,0.3,3.4,0.8
	c1.7,2.1,3.3,4.9,4.8,8.4c2,1.2,4.4,2.3,7.1,3.1c-0.1,6.3-2.7,9.4-7.9,9.3c-1.6-0.2-2.8-1-3.5-2.5l-0.9-2.2
	c-5.9-1.5-10.4-4.4-13.5-8.6l2-1.6c1.4,0.9,2.7,1.5,4,1.7c-0.9-3.4-2.8-6.2-5.8-8.5C299.5,325.3,300.4,324.6,301.8,324"/>
<path class="st13" d="M366.7,340.1l0,0.5c0,3.7-0.9,6.5-2.5,8.4c-1.7,2-4.1,3-7.5,2.9h-0.2c-2.3-0.3-4-1.6-5-3.7l-0.6-1.4
	c-5.9-1.7-10.4-4.7-13.6-9.1c-0.3-0.4-0.4-0.9-0.4-1.5c0-0.3,0.1-0.5,0.3-0.8l0.1,0.2c3.2,4.4,7.8,7.4,13.6,9.1l0.6,1.4
	c1,2.1,2.7,3.4,5,3.7h0.2c3.3,0.1,5.8-0.9,7.5-2.9C365.6,345.4,366.5,343.1,366.7,340.1 M339.8,331.3c-0.5-0.6-1.1-1.1-1.8-1.5
	c-0.4-0.3-0.6-0.6-0.7-1c-0.1-0.4-0.1-0.9,0.1-1.3l0.1-0.4l0.5,0.6c1.2,0.9,2.3,2,3.1,3.1h-0.3C340.4,330.9,340.1,331.1,339.8,331.3
	"/>
<path class="st45" d="M339.8,331.3c0.3-0.2,0.7-0.4,1.1-0.4h0.3c-0.8-1.2-1.9-2.2-3.1-3.1l-0.5-0.6l-0.2-0.4
	c-0.1-0.4-0.1-0.9,0.1-1.3c0.4-1.4,1.6-2.5,3.6-3.3l-0.1,0l0,0c0.3-0.2,0.6-0.2,1-0.2l1,0.3c1.3,0.8,2.3,1.5,3,2.3
	c3.1-0.5,5.8-0.2,7.9,0.7c0.3,0.1,0.5,0.3,0.8,0.6c1.7,2.1,3.3,4.9,4.8,8.3c1.8,1,3.8,1.9,6.1,2.6c0.4,0.1,0.8,0.4,1,0.8l0.4,1.2
	l0,1.5c-0.2,3-1.1,5.3-2.5,6.9c-1.7,2-4.1,3-7.5,2.9h-0.2c-2.3-0.3-4-1.6-5-3.7l-0.6-1.4c-5.9-1.7-10.4-4.7-13.6-9.1l-0.1-0.2
	c-0.2-0.4-0.3-0.8-0.3-1.3c0-0.5,0.3-1,0.7-1.3L339.8,331.3L339.8,331.3 M341.8,324L341.8,324c-1.4,0.6-2.3,1.3-2.6,2.1
	c3,2.3,4.9,5.1,5.8,8.5c-1.3-0.2-2.7-0.8-4-1.7l-2,1.6c3.1,4.2,7.6,7.1,13.5,8.6l0.9,2.2c0.7,1.5,1.9,2.3,3.5,2.5
	c5.2,0.1,7.8-3,7.9-9.3c-2.7-0.8-5.1-1.9-7.1-3.1c-1.5-3.5-3.1-6.3-4.8-8.4c-1-0.4-2.1-0.7-3.4-0.8h-1.3l-2.4,0.2l-0.9,0.1
	C344.4,325.9,343.3,324.9,341.8,324"/>
<path class="st28" d="M341.8,324c1.5,0.9,2.6,1.9,3.2,2.8l0.9-0.1l2.4-0.2h1.3c1.2,0.1,2.4,0.3,3.4,0.8c1.7,2.1,3.3,4.9,4.8,8.4
	c2,1.2,4.4,2.3,7.1,3.1c-0.1,6.3-2.7,9.4-7.9,9.3c-1.6-0.2-2.8-1-3.5-2.5l-0.9-2.2c-5.9-1.5-10.4-4.4-13.5-8.6l2-1.6
	c1.4,0.9,2.7,1.5,4,1.7c-0.9-3.4-2.8-6.2-5.8-8.5C339.5,325.3,340.4,324.6,341.8,324L341.8,324"/>
<path class="st14" d="M470.8,276.3l2.9,0.1l14,6.4c1,0.4,1.7,1.2,2.1,2.2s0.4,2,0,3s-1.1,1.7-2.1,2.1l-14,6.4l-2.9,0.1h0
	c-1-0.3-1.7-1-2.2-1.9c-0.5-0.9-0.6-1.9-0.4-2.9l1.4-5.3l-1.4-5.4c-0.3-1-0.1-2,0.4-2.9C469,277.2,469.8,276.6,470.8,276.3
	 M472.9,278.3l-1.5-0.1c-0.5,0.2-0.9,0.5-1.1,1c-0.3,0.5-0.3,0.9-0.1,1.4l1.5,5.9l-1.5,5.8c-0.1,0.5-0.1,1,0.1,1.5s0.6,0.8,1.1,1
	l1.5-0.1l14-6.4c0.5-0.2,0.8-0.6,1-1.1s0.2-1,0-1.5s-0.5-0.9-1-1.1L472.9,278.3"/>
<path class="st15" d="M472.9,278.3l14,6.4c0.5,0.2,0.8,0.6,1,1.1s0.2,1,0,1.5s-0.5,0.9-1,1.1l-14,6.4l-1.5,0.1
	c-0.5-0.2-0.9-0.5-1.1-1s-0.3-1-0.1-1.5l1.5-5.8l-1.5-5.9c-0.2-0.5-0.1-1,0.1-1.4c0.3-0.5,0.6-0.8,1.1-1L472.9,278.3 M472,292.8
	l14-6.3h-12.4L472,292.8"/>
<path class="st16" d="M472,292.8l1.6-6.3H486L472,292.8"/>
<path class="st20" d="M510.8,276.3l2.9,0.1l14,6.4c1,0.4,1.6,1.2,2,2.2s0.4,2,0,3s-1.1,1.7-2,2.1l-14,6.4l-2.9,0.1h0
	c-1-0.3-1.7-1-2.2-1.9c-0.5-0.9-0.6-1.9-0.4-2.9l1.4-5.3l-1.4-5.4c-0.3-1-0.1-2,0.4-2.9C509,277.2,509.8,276.6,510.8,276.3
	 M510.3,279.1c-0.3,0.5-0.3,0.9-0.1,1.4l1.5,5.9l-1.5,5.8c-0.1,0.5-0.1,1,0.1,1.5s0.6,0.8,1.1,1l1.5-0.1l14-6.4
	c0.5-0.2,0.8-0.6,1-1.1s0.2-1,0-1.5s-0.5-0.9-1-1.1l-14-6.4l-1.4-0.1C510.9,278.3,510.5,278.6,510.3,279.1"/>
<path class="st19" d="M510.3,279.1c0.3-0.5,0.6-0.8,1.1-1l1.4,0.1l14,6.4c0.5,0.2,0.8,0.6,1,1.1s0.2,1,0,1.5s-0.5,0.9-1,1.1l-14,6.4
	l-1.5,0.1c-0.5-0.2-0.9-0.5-1.1-1s-0.3-1-0.1-1.5l1.5-5.8l-1.5-5.9C509.9,280,510,279.6,510.3,279.1 M512,292.8l14-6.3h-12.3
	L512,292.8"/>
<path class="st18" d="M512,292.8l1.7-6.3H526L512,292.8"/>
<path class="st47" d="M567.8,287.2c0.2-0.5,0.2-1,0-1.5s-0.5-0.9-1-1.1l-14-6.4l-1.4-0.1c-0.5,0.2-0.9,0.5-1.2,1
	c-0.3,0.5-0.3,0.9-0.2,1.4l1.5,5.9l-1.5,5.8c-0.1,0.5-0.1,1,0.2,1.5l1.1,1l1.5-0.1l14-6.4C567.3,288.1,567.6,287.7,567.8,287.2
	 M569.7,285c0.4,1,0.4,2,0,3s-1.1,1.7-2,2.1l-14,6.4l-2.9,0.1h0c-1-0.3-1.7-1-2.2-1.9c-0.5-0.9-0.6-1.9-0.3-2.9l1.4-5.3l-1.4-5.4
	c-0.3-1-0.2-2,0.3-2.9c0.5-0.9,1.3-1.6,2.3-1.9l2.9,0.1l14,6.4C568.6,283.2,569.3,284,569.7,285"/>
<path class="st25" d="M567.8,287.2c-0.2,0.5-0.5,0.9-1,1.1l-14,6.4l-1.5,0.1l-1.1-1c-0.2-0.5-0.3-1-0.2-1.5l1.5-5.8l-1.5-5.9
	c-0.2-0.5-0.1-1,0.2-1.4c0.3-0.5,0.7-0.8,1.2-1l1.4,0.1l14,6.4c0.5,0.2,0.8,0.6,1,1.1S568,286.7,567.8,287.2 M552,292.8l14-6.3
	h-12.3L552,292.8"/>
<path class="st22" d="M552,292.8l1.7-6.3H566L552,292.8"/>
<path class="st48" d="M593.7,276.4l14,6.4c1,0.4,1.6,1.2,2,2.2s0.4,2,0,3s-1.1,1.7-2,2.1l-14,6.4l-2.9,0.1h0c-1-0.3-1.7-1-2.2-1.9
	c-0.5-0.9-0.6-1.9-0.3-2.9l1.4-5.3l-1.4-5.4c-0.3-1-0.2-2,0.3-2.9c0.5-0.9,1.3-1.6,2.3-1.9L593.7,276.4 M591.4,278.1
	c-0.5,0.2-0.9,0.5-1.2,1c-0.3,0.5-0.3,0.9-0.2,1.4l1.5,5.9l-1.5,5.8c-0.1,0.5-0.1,1,0.2,1.5s0.6,0.8,1.1,1l1.5-0.1l14-6.4
	c0.5-0.2,0.8-0.6,1-1.1s0.2-1,0-1.5s-0.5-0.9-1-1.1l-14-6.4L591.4,278.1"/>
<path class="st27" d="M591.4,278.1l1.4,0.1l14,6.4c0.5,0.2,0.8,0.6,1,1.1s0.2,1,0,1.5s-0.5,0.9-1,1.1l-14,6.4l-1.5,0.1
	c-0.5-0.2-0.9-0.5-1.1-1s-0.3-1-0.2-1.5l1.5-5.8l-1.5-5.9c-0.2-0.5-0.1-1,0.2-1.4C590.5,278.6,590.9,278.3,591.4,278.1 M592,292.8
	l14-6.3h-12.3L592,292.8"/>
<path class="st49" d="M592,292.8l1.7-6.3H606L592,292.8"/>
<path class="st15" d="M471.1,328.3c-0.5-0.2-0.8-0.6-1-1.1s-0.2-1,0-1.5s0.5-0.9,1-1.1l14-6.4l1.5-0.1c0.5,0.2,0.9,0.5,1.1,1
	c0.3,0.5,0.3,0.9,0.1,1.4l-1.5,5.9l1.5,5.8c0.1,0.5,0.1,1-0.1,1.5l-1.1,1l-1.5-0.1L471.1,328.3 M484.4,326.5H472l14,6.3L484.4,326.5
	"/>
<path class="st14" d="M471.1,328.3l14,6.4l1.5,0.1l1.1-1c0.2-0.5,0.3-1,0.1-1.5l-1.5-5.8l1.5-5.9c0.2-0.5,0.1-1-0.1-1.4
	c-0.3-0.5-0.6-0.8-1.1-1l-1.5,0.1l-14,6.4c-0.5,0.2-0.8,0.6-1,1.1s-0.2,1,0,1.5S470.7,328.1,471.1,328.3 M468.3,325
	c0.4-1,1.1-1.7,2.1-2.2l14-6.4l2.9-0.1c1,0.3,1.8,1,2.3,1.9c0.5,0.9,0.6,1.9,0.4,2.9l-1.4,5.4l1.4,5.3c0.3,1,0.1,2-0.4,2.9
	c-0.5,0.9-1.2,1.6-2.2,1.9h0l-2.9-0.1l-14-6.4c-1-0.4-1.7-1.1-2.1-2.1S467.9,326,468.3,325"/>
<path class="st16" d="M484.4,326.5l1.6,6.3l-14-6.3H484.4"/>
<path class="st19" d="M527.8,319.1c0.3,0.5,0.3,0.9,0.2,1.4l-1.5,5.9l1.5,5.8c0.1,0.5,0.1,1-0.2,1.5s-0.6,0.8-1.1,1l-1.5-0.1
	l-14-6.4c-0.5-0.2-0.8-0.6-1-1.1s-0.2-1,0-1.5s0.5-0.9,1-1.1l14-6.4l1.4-0.1C527.1,318.3,527.5,318.6,527.8,319.1 M526,332.8
	l-1.7-6.3H512L526,332.8"/>
<path class="st20" d="M527.8,319.1c-0.3-0.5-0.7-0.8-1.2-1l-1.4,0.1l-14,6.4c-0.5,0.2-0.8,0.6-1,1.1s-0.2,1,0,1.5s0.5,0.9,1,1.1
	l14,6.4l1.5,0.1c0.5-0.2,0.9-0.5,1.1-1s0.3-1,0.2-1.5l-1.5-5.8l1.5-5.9C528.1,320,528,319.6,527.8,319.1 M529.5,318.1
	c0.5,0.9,0.6,1.9,0.3,2.9l-1.4,5.4l1.4,5.3c0.3,1,0.2,2-0.3,2.9c-0.5,0.9-1.2,1.6-2.2,1.9h0l-2.9-0.1l-14-6.4
	c-1-0.4-1.7-1.1-2.1-2.1s-0.4-2,0-3s1.1-1.7,2.1-2.2l14-6.4l2.9-0.1C528.3,316.6,529,317.2,529.5,318.1"/>
<path class="st18" d="M526,332.8l-14-6.3h12.3L526,332.8"/>
<path class="st25" d="M565.2,318.3l1.4-0.1c0.5,0.2,0.9,0.5,1.2,1c0.3,0.5,0.3,0.9,0.2,1.4l-1.5,5.9l1.5,5.8c0.1,0.5,0.1,1-0.2,1.5
	s-0.6,0.8-1.1,1l-1.5-0.1l-14-6.4c-0.5-0.2-0.8-0.6-1-1.1s-0.2-1,0-1.5s0.5-0.9,1-1.1L565.2,318.3 M566,332.8l-1.7-6.3H552
	L566,332.8"/>
<path class="st47" d="M565.2,318.3l-14,6.4c-0.5,0.2-0.8,0.6-1,1.1s-0.2,1,0,1.5s0.5,0.9,1,1.1l14,6.4l1.5,0.1
	c0.5-0.2,0.9-0.5,1.1-1s0.3-1,0.2-1.5l-1.5-5.8l1.5-5.9c0.2-0.5,0.1-1-0.2-1.4c-0.3-0.5-0.7-0.8-1.2-1L565.2,318.3 M548.3,328
	c-0.4-1-0.4-2,0-3s1.1-1.7,2-2.2l14-6.4l2.9-0.1c1,0.3,1.8,1,2.3,1.9c0.5,0.9,0.6,1.9,0.3,2.9l-1.4,5.4l1.4,5.3c0.3,1,0.2,2-0.3,2.9
	c-0.5,0.9-1.2,1.6-2.2,1.9h0l-2.9-0.1l-14-6.4C549.4,329.7,548.7,329,548.3,328"/>
<path class="st22" d="M566,332.8l-14-6.3h12.3L566,332.8"/>
<path class="st27" d="M607.9,332.3c0.1,0.5,0.1,1-0.2,1.5s-0.6,0.8-1.1,1l-1.5-0.1l-14-6.4c-0.5-0.2-0.8-0.6-1-1.1s-0.2-1,0-1.5
	s0.5-0.9,1-1.1l14-6.4l1.4-0.1c0.5,0.2,0.9,0.5,1.2,1c0.3,0.5,0.3,0.9,0.2,1.4l-1.5,5.9L607.9,332.3 M606,332.8l-1.7-6.3H592
	L606,332.8"/>
<path class="st48" d="M609.8,321l-1.4,5.4l1.4,5.3c0.3,1,0.2,2-0.3,2.9c-0.5,0.9-1.2,1.6-2.2,1.9h0l-2.9-0.1l-14-6.4
	c-1-0.4-1.6-1.1-2-2.1s-0.4-2,0-3s1.1-1.7,2-2.2l14-6.4l2.9-0.1c1,0.3,1.8,1,2.3,1.9C610,319.1,610.1,320,609.8,321 M607.9,332.3
	l-1.5-5.8l1.5-5.9c0.2-0.5,0.1-1-0.2-1.4c-0.3-0.5-0.7-0.8-1.2-1l-1.4,0.1l-14,6.4c-0.5,0.2-0.8,0.6-1,1.1s-0.2,1,0,1.5
	s0.5,0.9,1,1.1l14,6.4l1.5,0.1c0.5-0.2,0.9-0.5,1.1-1S608,332.8,607.9,332.3"/>
<path class="st49" d="M606,332.8l-14-6.3h12.3L606,332.8"/>
<path class="st14" d="M258,446v-0.5c0-4.8,1.7-9,5-12.4l0.1-0.1c3.4-3.4,7.6-5,12.4-5s8.9,1.7,12.4,5v0.1c3.4,3.4,5.1,7.6,5.1,12.4
	v0.5c-0.1,4.6-1.9,8.6-5.1,11.9c-3.4,3.4-7.5,5.1-12.4,5.1s-9-1.7-12.4-5.1H263C259.8,454.6,258.1,450.6,258,446 M275.5,430
	c-4.3,0-7.9,1.5-11,4.5c-3,3.1-4.5,6.7-4.5,11c0,4.3,1.5,8,4.5,11c3,3,6.7,4.5,11,4.5c4.3,0,7.9-1.5,11-4.5l0,0c3-3,4.5-6.7,4.5-11
	c0-4.3-1.5-8-4.5-11C283.5,431.5,279.8,430,275.5,430"/>
<path class="st15" d="M275.5,430c4.3,0,8,1.5,11,4.5c3,3,4.5,6.7,4.5,11c0,4.3-1.5,7.9-4.5,11l0,0c-3,3-6.7,4.5-11,4.5
	c-4.3,0-8-1.5-11-4.5c-3-3-4.5-6.7-4.5-11c0-4.3,1.5-7.9,4.5-11C267.6,431.5,271.2,430,275.5,430 M275.5,432c-3.8,0-7,1.3-9.6,3.9
	c-2.6,2.7-3.9,5.9-3.9,9.6c0,3.7,1.3,6.9,3.9,9.5c2.7,2.7,5.9,4,9.6,4c3.7,0,6.9-1.3,9.5-4c2.7-2.6,4-5.8,4-9.5c0-3.8-1.3-7-4-9.6
	C282.4,433.3,279.2,432,275.5,432"/>
<path class="st16" d="M275.5,432c3.7,0,6.9,1.3,9.5,3.9c2.7,2.7,4,5.9,4,9.6c0,3.7-1.3,6.9-4,9.5c-2.6,2.7-5.8,4-9.5,4
	c-3.8,0-7-1.3-9.6-4c-2.6-2.6-3.9-5.8-3.9-9.5c0-3.8,1.3-7,3.9-9.6C268.5,433.3,271.7,432,275.5,432"/>
<path class="st13" d="M293,446v0.5v0.5v0.5v0.5v0.5c0,4.8-1.7,8.9-5.1,12.4c-3.4,3.4-7.5,5.1-12.4,5.1s-9-1.7-12.4-5.1H263
	c-3.4-3.4-5-7.5-5-12.4V448v-0.5V447v-0.5V446c0.1,4.6,1.8,8.6,5,11.9h0.1c3.4,3.4,7.6,5.1,12.4,5.1s8.9-1.7,12.4-5.1
	C291.1,454.6,292.9,450.6,293,446"/>
<path class="st20" d="M308,446v-0.5c0-4.8,1.7-9,5-12.4l0.1-0.1c3.4-3.4,7.6-5,12.4-5s8.9,1.7,12.4,5v0.1c3.4,3.4,5.1,7.6,5.1,12.4
	v0.5c-0.1,4.6-1.9,8.6-5.1,11.9c-3.4,3.4-7.5,5.1-12.4,5.1s-9-1.7-12.4-5.1H313C309.8,454.6,308.1,450.6,308,446 M310,445.5
	c0,4.3,1.5,8,4.5,11c3,3,6.7,4.5,11,4.5c4.3,0,7.9-1.5,11-4.5l0,0c3-3,4.5-6.7,4.5-11c0-4.3-1.5-8-4.5-11c-3-3-6.7-4.5-11-4.5
	c-4.3,0-7.9,1.5-11,4.5C311.5,437.6,310,441.2,310,445.5"/>
<path class="st13" d="M343,446v0.5v0.5v0.5v0.5v0.5c0,4.8-1.7,8.9-5.1,12.4c-3.4,3.4-7.5,5.1-12.4,5.1s-9-1.7-12.4-5.1H313
	c-3.4-3.4-5-7.5-5-12.4V448v-0.5V447v-0.5V446c0.1,4.6,1.8,8.6,5,11.9h0.1c3.4,3.4,7.6,5.1,12.4,5.1s8.9-1.7,12.4-5.1
	C341.1,454.6,342.9,450.6,343,446"/>
<path class="st19" d="M312,445.5c0,3.7,1.3,6.9,3.9,9.5c2.7,2.7,5.9,4,9.6,4c3.7,0,6.9-1.3,9.5-4c2.7-2.6,4-5.8,4-9.5
	c0-3.8-1.3-7-4-9.6c-2.6-2.6-5.8-3.9-9.5-3.9c-3.8,0-7,1.3-9.6,3.9C313.3,438.5,312,441.7,312,445.5 M310,445.5
	c0-4.3,1.5-7.9,4.5-11c3.1-3,6.7-4.5,11-4.5c4.3,0,8,1.5,11,4.5c3,3,4.5,6.7,4.5,11c0,4.3-1.5,7.9-4.5,11l0,0c-3,3-6.7,4.5-11,4.5
	c-4.3,0-8-1.5-11-4.5C311.5,453.5,310,449.8,310,445.5"/>
<path class="st18" d="M312,445.5c0-3.8,1.3-7,3.9-9.6c2.7-2.6,5.9-3.9,9.6-3.9c3.7,0,6.9,1.3,9.5,3.9c2.7,2.7,4,5.9,4,9.6
	c0,3.7-1.3,6.9-4,9.5c-2.6,2.7-5.8,4-9.5,4c-3.8,0-7-1.3-9.6-4C313.3,452.4,312,449.2,312,445.5"/>
<path class="st25" d="M386.5,434.5c-3-3-6.7-4.5-11-4.5c-4.3,0-7.9,1.5-11,4.5c-3,3.1-4.5,6.7-4.5,11c0,4.3,1.5,8,4.5,11
	c3,3,6.7,4.5,11,4.5c4.3,0,7.9-1.5,11-4.5l0,0c3-3,4.5-6.7,4.5-11C391,441.2,389.5,437.5,386.5,434.5 M358,446v-0.5
	c0-4.8,1.7-9,5-12.4l0.1-0.1c3.4-3.4,7.6-5,12.4-5s8.9,1.7,12.4,5v0.1c3.4,3.4,5.1,7.6,5.1,12.4v0.5c-0.1,4.6-1.9,8.6-5.1,11.9
	c-3.4,3.4-7.5,5.1-12.4,5.1s-9-1.7-12.4-5.1H363C359.8,454.6,358.1,450.6,358,446"/>
<path class="st23" d="M386.5,434.5c3,3,4.5,6.7,4.5,11c0,4.3-1.5,7.9-4.5,11l0,0c-3,3-6.7,4.5-11,4.5c-4.3,0-8-1.5-11-4.5
	c-3-3-4.5-6.7-4.5-11c0-4.3,1.5-7.9,4.5-11c3.1-3,6.7-4.5,11-4.5C379.8,430,383.5,431.5,386.5,434.5 M385,435.9
	c-2.6-2.6-5.8-3.9-9.5-3.9c-3.8,0-7,1.3-9.6,3.9c-2.6,2.7-3.9,5.9-3.9,9.6c0,3.7,1.3,6.9,3.9,9.5c2.7,2.7,5.9,4,9.6,4
	c3.7,0,6.9-1.3,9.5-4c2.7-2.6,4-5.8,4-9.5C389,441.7,387.7,438.5,385,435.9"/>
<path class="st22" d="M385,435.9c2.7,2.7,4,5.9,4,9.6c0,3.7-1.3,6.9-4,9.5c-2.6,2.7-5.8,4-9.5,4c-3.8,0-7-1.3-9.6-4
	c-2.6-2.6-3.9-5.8-3.9-9.5c0-3.8,1.3-7,3.9-9.6c2.7-2.6,5.9-3.9,9.6-3.9C379.2,432,382.4,433.3,385,435.9"/>
<path class="st13" d="M393,446v0.5v0.5v0.5v0.5v0.5c0,4.8-1.7,8.9-5.1,12.4c-3.4,3.4-7.5,5.1-12.4,5.1s-9-1.7-12.4-5.1H363
	c-3.4-3.4-5-7.5-5-12.4V448v-0.5V447v-0.5V446c0.1,4.6,1.8,8.6,5,11.9h0.1c3.4,3.4,7.6,5.1,12.4,5.1s8.9-1.7,12.4-5.1
	C391.1,454.6,392.9,450.6,393,446"/>
<path class="st26" d="M425.5,430c4.3,0,8,1.5,11,4.5c3,3,4.5,6.7,4.5,11c0,4.3-1.5,7.9-4.5,11l0,0c-3,3-6.7,4.5-11,4.5
	c-4.3,0-8-1.5-11-4.5c-3-3-4.5-6.7-4.5-11c0-4.3,1.5-7.9,4.5-11C417.6,431.5,421.2,430,425.5,430 M425.5,432c-3.8,0-7,1.3-9.6,3.9
	c-2.6,2.7-3.9,5.9-3.9,9.6c0,3.7,1.3,6.9,3.9,9.5c2.7,2.7,5.9,4,9.6,4c3.7,0,6.9-1.3,9.5-4c2.7-2.6,4-5.8,4-9.5c0-3.8-1.3-7-4-9.6
	C432.4,433.3,429.2,432,425.5,432"/>
<path class="st28" d="M425.5,432c3.7,0,6.9,1.3,9.5,3.9c2.7,2.7,4,5.9,4,9.6c0,3.7-1.3,6.9-4,9.5c-2.6,2.7-5.8,4-9.5,4
	c-3.8,0-7-1.3-9.6-4c-2.6-2.6-3.9-5.8-3.9-9.5c0-3.8,1.3-7,3.9-9.6C418.5,433.3,421.7,432,425.5,432"/>
<path class="st27" d="M408,446v-0.5c0-4.8,1.7-9,5-12.4l0.1-0.1c3.4-3.4,7.6-5,12.4-5s8.9,1.7,12.4,5v0.1c3.4,3.4,5.1,7.6,5.1,12.4
	v0.5c-0.1,4.6-1.9,8.6-5.1,11.9c-3.4,3.4-7.5,5.1-12.4,5.1s-9-1.7-12.4-5.1H413C409.8,454.6,408.1,450.6,408,446 M425.5,430
	c-4.3,0-7.9,1.5-11,4.5c-3,3.1-4.5,6.7-4.5,11c0,4.3,1.5,8,4.5,11c3,3,6.7,4.5,11,4.5c4.3,0,7.9-1.5,11-4.5l0,0c3-3,4.5-6.7,4.5-11
	c0-4.3-1.5-8-4.5-11C433.5,431.5,429.8,430,425.5,430"/>
<path class="st13" d="M443,446v0.5v0.5v0.5v0.5v0.5c0,4.8-1.7,8.9-5.1,12.4c-3.4,3.4-7.5,5.1-12.4,5.1s-9-1.7-12.4-5.1H413
	c-3.4-3.4-5-7.5-5-12.4V448v-0.5V447v-0.5V446c0.1,4.6,1.8,8.6,5,11.9h0.1c3.4,3.4,7.6,5.1,12.4,5.1s8.9-1.7,12.4-5.1
	C441.1,454.6,442.9,450.6,443,446"/>
<path class="st50" d="M420.8,488.1c0.2-0.2,0.4-0.2,0.6,0l4.1,4.2l4.2-4.2c0.2-0.2,0.4-0.2,0.6,0l2.5,2.6c0.2,0.2,0.2,0.4,0,0.6
	l-4.1,4.2l4.1,4.2c0.2,0.2,0.2,0.4,0,0.6l-2.5,2.5c-0.2,0.2-0.4,0.2-0.6,0l-4.2-4.2l-4.2,4.2c-0.2,0.2-0.5,0.2-0.6,0l-2.5-2.5
	c-0.2-0.2-0.2-0.5,0-0.6l4.2-4.2l-4.2-4.2c-0.2-0.2-0.2-0.4,0-0.6L420.8,488.1"/>
<path class="st50" d="M429.4,518l0.1,0l4.1,2.7l0.1,0.2l0,0.2l-9.3,11.8l-0.1,0.1l-0.1,0l-0.2,0l-6-8.5l0-0.2l0.1-0.2l4.1-2.3l0.3,0
	l0.1,0.1l1.7,2.5l4.9-6.3L429.4,518"/>
<path class="st50" d="M433.6,555.5c0,2.2-0.8,4.1-2.4,5.7c-1.6,1.6-3.5,2.4-5.8,2.4c-2.3,0-4.2-0.8-5.8-2.4
	c-1.6-1.6-2.4-3.5-2.4-5.7c0-2.3,0.8-4.2,2.4-5.8c1.6-1.6,3.5-2.4,5.8-2.4c2.2,0,4.1,0.8,5.8,2.4
	C432.9,551.3,433.6,553.2,433.6,555.5"/>
<path class="st51" d="M369.7,549.7c1.6-1.6,3.5-2.4,5.8-2.4c2.2,0,4.1,0.8,5.8,2.4c1.6,1.6,2.4,3.5,2.4,5.8c0,2.2-0.8,4.1-2.4,5.7
	c-1.6,1.6-3.5,2.4-5.8,2.4c-2.3,0-4.2-0.8-5.8-2.4c-1.6-1.6-2.4-3.5-2.4-5.7C367.4,553.2,368.1,551.3,369.7,549.7"/>
<path class="st51" d="M379.5,518l4.1,2.7l0.1,0.2l0,0.2l-9.3,11.8l-0.1,0.1l-0.1,0l-0.2,0l-6-8.5l0-0.2l0.1-0.2l4.1-2.3l0.3,0
	l0.1,0.1l1.7,2.5l4.9-6.3l0.2-0.1L379.5,518"/>
<path class="st51" d="M370.8,488.1c0.2-0.2,0.4-0.2,0.6,0l4.1,4.2l4.2-4.2c0.2-0.2,0.4-0.2,0.6,0l2.5,2.6c0.2,0.2,0.2,0.4,0,0.6
	l-4.1,4.2l4.1,4.2c0.2,0.2,0.2,0.4,0,0.6l-2.5,2.5c-0.2,0.2-0.4,0.2-0.6,0l-4.2-4.2l-4.2,4.2c-0.2,0.2-0.5,0.2-0.6,0l-2.5-2.5
	c-0.2-0.2-0.2-0.5,0-0.6l4.2-4.2l-4.2-4.2c-0.2-0.2-0.2-0.4,0-0.6L370.8,488.1"/>
<path class="st52" d="M318,524.3l0.1-0.2l4.1-2.3l0.3,0l0.1,0.1l1.7,2.5l4.9-6.3l0.2-0.1l0.1,0l4.1,2.7l0.1,0.2l0,0.2l-9.3,11.8
	l-0.1,0.1l-0.1,0l-0.2,0l-6-8.5L318,524.3"/>
<path class="st52" d="M318.2,490.7l2.5-2.6c0.2-0.2,0.4-0.2,0.6,0l4.1,4.2l4.2-4.2c0.2-0.2,0.4-0.2,0.6,0l2.5,2.6
	c0.2,0.2,0.2,0.4,0,0.6l-4.1,4.2l4.1,4.2c0.2,0.2,0.2,0.4,0,0.6l-2.5,2.5c-0.2,0.2-0.4,0.2-0.6,0l-4.2-4.2l-4.2,4.2
	c-0.2,0.2-0.5,0.2-0.6,0l-2.5-2.5c-0.2-0.2-0.2-0.5,0-0.6l4.2-4.2l-4.2-4.2C318,491.1,318,490.9,318.2,490.7"/>
<path class="st52" d="M317.4,555.5c0-2.3,0.8-4.2,2.4-5.8c1.6-1.6,3.5-2.4,5.8-2.4c2.2,0,4.1,0.8,5.8,2.4c1.6,1.6,2.4,3.5,2.4,5.8
	c0,2.2-0.8,4.1-2.4,5.7c-1.6,1.6-3.5,2.4-5.8,2.4c-2.3,0-4.2-0.8-5.8-2.4C318.1,559.6,317.4,557.7,317.4,555.5"/>
<path class="st53" d="M275.5,547.3c2.2,0,4.1,0.8,5.8,2.4c1.6,1.6,2.4,3.5,2.4,5.8c0,2.2-0.8,4.1-2.4,5.7c-1.6,1.6-3.5,2.4-5.8,2.4
	c-2.3,0-4.2-0.8-5.8-2.4c-1.6-1.6-2.4-3.5-2.4-5.7c0-2.3,0.8-4.2,2.4-5.8C271.3,548.1,273.2,547.3,275.5,547.3"/>
<path class="st53" d="M283.7,521.1l-9.3,11.8l-0.1,0.1l-0.1,0l-0.2,0l-6-8.5l0-0.2l0.1-0.2l4.1-2.3l0.3,0l0.1,0.1l1.7,2.5l4.9-6.3
	l0.2-0.1l0.1,0l4.1,2.7l0.1,0.2L283.7,521.1"/>
<path class="st53" d="M270.8,488.1c0.2-0.2,0.4-0.2,0.6,0l4.1,4.2l4.2-4.2c0.2-0.2,0.4-0.2,0.6,0l2.5,2.6c0.2,0.2,0.2,0.4,0,0.6
	l-4.1,4.2l4.1,4.2c0.2,0.2,0.2,0.4,0,0.6l-2.5,2.5c-0.2,0.2-0.4,0.2-0.6,0l-4.2-4.2l-4.2,4.2c-0.2,0.2-0.5,0.2-0.6,0l-2.5-2.5
	c-0.2-0.2-0.2-0.5,0-0.6l4.2-4.2l-4.2-4.2c-0.2-0.2-0.2-0.4,0-0.6L270.8,488.1"/>
<image style="overflow:visible;" width="512" height="512" xlink:href="C:\Users\Tuan Anh\Downloads\skull (2).png"  transform="matrix(5.039060e-02 0 0 5.039060e-02 412.975 433.1)">
</image>
</svg>
